{
  "accessors": [
    {
      "bufferView": 2,
      "componentType": 5126,
      "count": 65532,
      "max": [
        2.971447706222534,
        -19.263097763061523,
        2.830852508544922
      ],
      "min": [
        -3.0104804039001465,
        -33.00443649291992,
        -2.3755545616149902
      ],
      "type": "VEC3"
    },
    {
      "bufferView": 2,
      "byteOffset": 786384,
      "componentType": 5126,
      "count": 65532,
      "max": [
        0.9999991059303284,
        0.9999343156814575,
        0.9999974966049194
      ],
      "min": [
        -0.999993622303009,
        -0.9999937415122986,
        -0.999992847442627
      ],
      "type": "VEC3"
    },
    {
      "bufferView": 3,
      "componentType": 5126,
      "count": 65532,
      "max": [
        0.8549019694328308,
        0.8352941274642944,
        0.843137264251709,
        1.0
      ],
      "min": [
        0.04313725605607033,
        0.05098039284348488,
        0.0470588244497776,
        1.0
      ],
      "type": "VEC4"
    },
    {
      "bufferView": 1,
      "componentType": 5126,
      "count": 65532,
      "max": [
        0.9997559785842896,
        0.424560010433197
      ],
      "min": [
        0.00024399999529123306,
        0.00024399999529123306
      ],
      "type": "VEC2"
    },
    {
      "bufferView": 0,
      "componentType": 5125,
      "count": 298773,
      "type": "SCALAR"
    },
    {
      "bufferView": 2,
      "byteOffset": 1572768,
      "componentType": 5126,
      "count": 65532,
      "max": [
        2.975836992263794,
        -23.29503631591797,
        2.7903075218200684
      ],
      "min": [
        -4.788313865661621,
        -38.939788818359375,
        -3.466660499572754
      ],
      "type": "VEC3"
    },
    {
      "bufferView": 2,
      "byteOffset": 2359152,
      "componentType": 5126,
      "count": 65532,
      "max": [
        0.9999056458473206,
        0.9998358488082886,
        0.9999650716781616
      ],
      "min": [
        -0.9999989867210388,
        -0.9997949004173279,
        -0.999992847442627
      ],
      "type": "VEC3"
    },
    {
      "bufferView": 3,
      "byteOffset": 1048512,
      "componentType": 5126,
      "count": 65532,
      "max": [
        0.9215686321258545,
        0.9725490212440491,
        0.9960784316062927,
        1.0
      ],
      "min": [
        0.0470588244497776,
        0.05882352963089943,
        0.054901961237192154,
        1.0
      ],
      "type": "VEC4"
    },
    {
      "bufferView": 1,
      "byteOffset": 524256,
      "componentType": 5126,
      "count": 65532,
      "max": [
        0.9997559785842896,
        0.4079590141773224
      ],
      "min": [
        0.00024399999529123306,
        0.00024399999529123306
      ],
      "type": "VEC2"
    },
    {
      "bufferView": 0,
      "byteOffset": 1195092,
      "componentType": 5125,
      "count": 279906,
      "type": "SCALAR"
    },
    {
      "bufferView": 2,
      "byteOffset": 3145536,
      "componentType": 5126,
      "count": 65532,
      "max": [
        6.715951919555664,
        -16.014556884765625,
        6.357527256011963
      ],
      "min": [
        -5.799177169799805,
        -41.43883514404297,
        -6.320750713348389
      ],
      "type": "VEC3"
    },
    {
      "bufferView": 2,
      "byteOffset": 3931920,
      "componentType": 5126,
      "count": 65532,
      "max": [
        0.9998194575309753,
        0.9999729990959167,
        0.9999592900276184
      ],
      "min": [
        -0.9998714923858643,
        -0.9999992251396179,
        -0.9999396204948425
      ],
      "type": "VEC3"
    },
    {
      "bufferView": 3,
      "byteOffset": 2097024,
      "componentType": 5126,
      "count": 65532,
      "max": [
        0.9607843160629272,
        0.9960784316062927,
        0.9960784316062927,
        1.0
      ],
      "min": [
        0.07058823853731155,
        0.0784313753247261,
        0.08235294371843338,
        1.0
      ],
      "type": "VEC4"
    },
    {
      "bufferView": 1,
      "byteOffset": 1048512,
      "componentType": 5126,
      "count": 65532,
      "max": [
        0.9997559785842896,
        0.3962399959564209
      ],
      "min": [
        0.00024399999529123306,
        0.00024399999529123306
      ],
      "type": "VEC2"
    },
    {
      "bufferView": 0,
      "byteOffset": 2314716,
      "componentType": 5125,
      "count": 283239,
      "type": "SCALAR"
    },
    {
      "bufferView": 2,
      "byteOffset": 4718304,
      "componentType": 5126,
      "count": 65532,
      "max": [
        6.7074809074401855,
        -13.861421585083008,
        6.357527256011963
      ],
      "min": [
        -5.96048641204834,
        -23.270099639892578,
        -5.323485851287842
      ],
      "type": "VEC3"
    },
    {
      "bufferView": 2,
      "byteOffset": 5504688,
      "componentType": 5126,
      "count": 65532,
      "max": [
        0.9999356269836426,
        0.9999997615814209,
        0.9999987483024597
      ],
      "min": [
        -0.9999766945838928,
        -0.9999998807907104,
        -0.9999199509620667
      ],
      "type": "VEC3"
    },
    {
      "bufferView": 3,
      "byteOffset": 3145536,
      "componentType": 5126,
      "count": 65532,
      "max": [
        0.8352941274642944,
        0.9137254953384399,
        0.9686274528503418,
        1.0
      ],
      "min": [
        0.06666667014360428,
        0.07058823853731155,
        0.07450980693101883,
        1.0
      ],
      "type": "VEC4"
    },
    {
      "bufferView": 1,
      "byteOffset": 1572768,
      "componentType": 5126,
      "count": 65532,
      "max": [
        0.9997559785842896,
        0.49584999680519104
      ],
      "min": [
        0.00024399999529123306,
        0.00024399999529123306
      ],
      "type": "VEC2"
    },
    {
      "bufferView": 0,
      "byteOffset": 3447672,
      "componentType": 5125,
      "count": 290364,
      "type": "SCALAR"
    },
    {
      "bufferView": 2,
      "byteOffset": 6291072,
      "componentType": 5126,
      "count": 65532,
      "max": [
        3.662147283554077,
        -13.861421585083008,
        6.042505264282227
      ],
      "min": [
        -5.688996315002441,
        -37.82172393798828,
        -5.326308727264404
      ],
      "type": "VEC3"
    },
    {
      "bufferView": 2,
      "byteOffset": 7077456,
      "componentType": 5126,
      "count": 65532,
      "max": [
        0.9999880194664001,
        0.9999976754188538,
        0.9999339580535889
      ],
      "min": [
        -0.9998722672462463,
        -0.9999994039535522,
        -0.9999855756759644
      ],
      "type": "VEC3"
    },
    {
      "bufferView": 3,
      "byteOffset": 4194048,
      "componentType": 5126,
      "count": 65532,
      "max": [
        0.8470588326454163,
        0.8980392217636108,
        0.9529411792755127,
        1.0
      ],
      "min": [
        0.027450980618596077,
        0.0470588244497776,
        0.05882352963089943,
        1.0
      ],
      "type": "VEC4"
    },
    {
      "bufferView": 1,
      "byteOffset": 2097024,
      "componentType": 5126,
      "count": 65532,
      "max": [
        0.9997559785842896,
        0.46582600474357605
      ],
      "min": [
        0.00024399999529123306,
        0.00024399999529123306
      ],
      "type": "VEC2"
    },
    {
      "bufferView": 0,
      "byteOffset": 4609128,
      "componentType": 5125,
      "count": 231006,
      "type": "SCALAR"
    },
    {
      "bufferView": 2,
      "byteOffset": 7863840,
      "componentType": 5126,
      "count": 35728,
      "max": [
        6.715951919555664,
        -16.302566528320313,
        5.550502777099609
      ],
      "min": [
        -5.076812267303467,
        -37.87945556640625,
        -2.9500489234924316
      ],
      "type": "VEC3"
    },
    {
      "bufferView": 2,
      "byteOffset": 8292576,
      "componentType": 5126,
      "count": 35728,
      "max": [
        0.9997749328613281,
        0.9999736547470093,
        1.0
      ],
      "min": [
        -0.9999904632568359,
        -0.9999968409538269,
        -0.9999862313270569
      ],
      "type": "VEC3"
    },
    {
      "bufferView": 3,
      "byteOffset": 5242560,
      "componentType": 5126,
      "count": 35728,
      "max": [
        0.8392156958580017,
        0.8745098114013672,
        0.9372549057006836,
        1.0
      ],
      "min": [
        0.07058823853731155,
        0.08627451211214066,
        0.10196078568696976,
        1.0
      ],
      "type": "VEC4"
    },
    {
      "bufferView": 1,
      "byteOffset": 2621280,
      "componentType": 5126,
      "count": 35728,
      "max": [
        0.9997559785842896,
        0.4711880087852478
      ],
      "min": [
        0.00024399999529123306,
        0.00024399999529123306
      ],
      "type": "VEC2"
    },
    {
      "bufferView": 0,
      "byteOffset": 5533152,
      "componentType": 5125,
      "count": 116712,
      "type": "SCALAR"
    }
  ],
  "asset": {
    "extras": {
      "author": "Geoffrey Marchal (https://sketchfab.com/geoffreymarchal)",
      "license": "CC-BY-NC-SA-4.0 (http://creativecommons.org/licenses/by-nc-sa/4.0/)",
      "source": "https://sketchfab.com/3d-models/femme-a-la-fontaine-00781e5e4be44130bec5269e44f2f5a9",
      "title": "Femme à la Fontaine"
    },
    "generator": "Sketchfab-15.12.0",
    "version": "2.0"
  },
  "bufferViews": [
    {
      "buffer": 0,
      "byteLength": 6000000,
      "name": "floatBufferViews",
      "target": 34963
    },
    {
      "buffer": 0,
      "byteLength": 2907104,
      "byteOffset": 6000000,
      "byteStride": 8,
      "name": "floatBufferViews",
      "target": 34962
    },
    {
      "buffer": 0,
      "byteLength": 8721312,
      "byteOffset": 8907104,
      "byteStride": 12,
      "name": "floatBufferViews",
      "target": 34962
    },
    {
      "buffer": 0,
      "byteLength": 5814208,
      "byteOffset": 17628416,
      "byteStride": 16,
      "name": "floatBufferViews",
      "target": 34962
    }
  ],
  "buffers": [
    {
      "byteLength": 23442624,
      "uri": "scene.bin"
    }
  ],
  "images": [
    {
      "uri": "textures/femme_fontaine_-_CleanUp_-_LowPoly_Material_u1_v1_baseColor.jpeg"
    }
  ],
  "materials": [
    {
      "doubleSided": true,
      "name": "femme_fontaine_-_CleanUp_-_LowPoly_Material_u1_v1",
      "pbrMetallicRoughness": {
        "baseColorTexture": {
          "index": 0
        },
        "metallicFactor": 0.0
      }
    }
  ],
  "meshes": [
    {
      "name": "Object_0",
      "primitives": [
        {
          "attributes": {
            "COLOR_0": 2,
            "NORMAL": 1,
            "POSITION": 0,
            "TEXCOORD_0": 3
          },
          "indices": 4,
          "material": 0,
          "mode": 4
        }
      ]
    },
    {
      "name": "Object_1",
      "primitives": [
        {
          "attributes": {
            "COLOR_0": 7,
            "NORMAL": 6,
            "POSITION": 5,
            "TEXCOORD_0": 8
          },
          "indices": 9,
          "material": 0,
          "mode": 4
        }
      ]
    },
    {
      "name": "Object_2",
      "primitives": [
        {
          "attributes": {
            "COLOR_0": 12,
            "NORMAL": 11,
            "POSITION": 10,
            "TEXCOORD_0": 13
          },
          "indices": 14,
          "material": 0,
          "mode": 4
        }
      ]
    },
    {
      "name": "Object_3",
      "primitives": [
        {
          "attributes": {
            "COLOR_0": 17,
            "NORMAL": 16,
            "POSITION": 15,
            "TEXCOORD_0": 18
          },
          "indices": 19,
          "material": 0,
          "mode": 4
        }
      ]
    },
    {
      "name": "Object_4",
      "primitives": [
        {
          "attributes": {
            "COLOR_0": 22,
            "NORMAL": 21,
            "POSITION": 20,
            "TEXCOORD_0": 23
          },
          "indices": 24,
          "material": 0,
          "mode": 4
        }
      ]
    },
    {
      "name": "Object_5",
      "primitives": [
        {
          "attributes": {
            "COLOR_0": 27,
            "NORMAL": 26,
            "POSITION": 25,
            "TEXCOORD_0": 28
          },
          "indices": 29,
          "material": 0,
          "mode": 4
        }
      ]
    }
  ],
  "nodes": [
    {
      "children": [
        1
      ],
      "matrix": [
        0.522217333316803,
        1.8936239452059577e-16,
        -0.8528124094009399,
        0.0,
        -2.7755575615628914e-16,
        -1.0,
        -4.718447854656915e-16,
        0.0,
        -0.8528124094009399,
        5.322891756957666e-16,
        -0.522217333316803,
        0.0,
        0.0,
        0.0,
        0.0,
        1.0
      ],
      "name": "Sketchfab_model"
    },
    {
      "children": [
        2,
        3,
        4,
        5,
        6,
        7
      ],
      "name": "femme_fontaine_-_CleanUp_-_LowPoly.obj.cleaner.materialmerger.gles"
    },
    {
      "mesh": 0,
      "name": "Object_2"
    },
    {
      "mesh": 1,
      "name": "Object_3"
    },
    {
      "mesh": 2,
      "name": "Object_4"
    },
    {
      "mesh": 3,
      "name": "Object_5"
    },
    {
      "mesh": 4,
      "name": "Object_6"
    },
    {
      "mesh": 5,
      "name": "Object_7"
    }
  ],
  "samplers": [
    {
      "magFilter": 9729,
      "minFilter": 9987,
      "wrapS": 10497,
      "wrapT": 10497
    }
  ],
  "scene": 0,
  "scenes": [
    {
      "name": "Sketchfab_Scene",
      "nodes": [
        0
      ]
    }
  ],
  "textures": [
    {
      "sampler": 0,
      "source": 0
    }
  ]
}
