{
    "asset" : {
        "generator" : "Khronos glTF Blender I/O v3.4.50",
        "version" : "2.0"
    },
    "scene" : 0,
    "scenes" : [
        {
            "name" : "Scene",
            "nodes" : [
                0
            ]
        }
    ],
    "nodes" : [
        {
            "mesh" : 0,
            "name" : "Tree.Birch"
        }
    ],
    "materials" : [
        {
            "doubleSided" : true,
            "name" : "Tree.Birch.Leaf.Summer.Mat",
            "pbrMetallicRoughness" : {
                "baseColorFactor" : [
                    0.007498776540160179,
                    0.09305881708860397,
                    0.2961382269859314,
                    1
                ],
                "metallicFactor" : 0,
                "roughnessFactor" : 0.5
            }
        },
        {
            "doubleSided" : true,
            "name" : "Tree.Birch.Bark.Mat",
            "pbrMetallicRoughness" : {
                "baseColorFactor" : [
                    0.008441389538347721,
                    0.03674349561333656,
                    0.1548604518175125,
                    1
                ],
                "metallicFactor" : 0,
                "roughnessFactor" : 0.4780219793319702
            }
        },
        {
            "doubleSided" : true,
            "name" : "Material",
            "pbrMetallicRoughness" : {
                "baseColorFactor" : [
                    0.8713660836219788,
                    0.9559725522994995,
                    1,
                    1
                ],
                "metallicFactor" : 0,
                "roughnessFactor" : 0.5
            }
        },
        {
            "doubleSided" : true,
            "name" : "Material.001",
            "pbrMetallicRoughness" : {
                "baseColorFactor" : [
                    0.003958600573241711,
                    0.03540555760264397,
                    0.10448729991912842,
                    1
                ],
                "metallicFactor" : 0,
                "roughnessFactor" : 0.4000000059604645
            }
        }
    ],
    "meshes" : [
        {
            "name" : "sub02",
            "primitives" : [
                {
                    "attributes" : {
                        "POSITION" : 0,
                        "TEXCOORD_0" : 1,
                        "NORMAL" : 2
                    },
                    "indices" : 3,
                    "material" : 0
                },
                {
                    "attributes" : {
                        "POSITION" : 4,
                        "TEXCOORD_0" : 5,
                        "NORMAL" : 6
                    },
                    "indices" : 7,
                    "material" : 1
                },
                {
                    "attributes" : {
                        "POSITION" : 8,
                        "TEXCOORD_0" : 9,
                        "NORMAL" : 10
                    },
                    "indices" : 11,
                    "material" : 2
                },
                {
                    "attributes" : {
                        "POSITION" : 12,
                        "TEXCOORD_0" : 13,
                        "NORMAL" : 14
                    },
                    "indices" : 15,
                    "material" : 3
                }
            ]
        }
    ],
    "accessors" : [
        {
            "bufferView" : 0,
            "componentType" : 5126,
            "count" : 141546,
            "max" : [
                1.057166576385498,
                3.898221015930176,
                1.174425482749939
            ],
            "min" : [
                -1.2520685195922852,
                0.8800487518310547,
                -1.12883722782135
            ],
            "type" : "VEC3"
        },
        {
            "bufferView" : 1,
            "componentType" : 5126,
            "count" : 141546,
            "type" : "VEC2"
        },
        {
            "bufferView" : 2,
            "componentType" : 5126,
            "count" : 141546,
            "type" : "VEC3"
        },
        {
            "bufferView" : 3,
            "componentType" : 5125,
            "count" : 141546,
            "type" : "SCALAR"
        },
        {
            "bufferView" : 4,
            "componentType" : 5126,
            "count" : 2031,
            "max" : [
                0.8214147090911865,
                3.387470245361328,
                1.0261348485946655
            ],
            "min" : [
                -0.9788229465484619,
                -0.020649908110499382,
                -0.8908761739730835
            ],
            "type" : "VEC3"
        },
        {
            "bufferView" : 5,
            "componentType" : 5126,
            "count" : 2031,
            "type" : "VEC2"
        },
        {
            "bufferView" : 6,
            "componentType" : 5126,
            "count" : 2031,
            "type" : "VEC3"
        },
        {
            "bufferView" : 7,
            "componentType" : 5123,
            "count" : 2031,
            "type" : "SCALAR"
        },
        {
            "bufferView" : 8,
            "componentType" : 5126,
            "count" : 48132,
            "max" : [
                1.140638828277588,
                3.898221015930176,
                1.1430901288986206
            ],
            "min" : [
                -1.1583032608032227,
                1.1505708694458008,
                -1.1140729188919067
            ],
            "type" : "VEC3"
        },
        {
            "bufferView" : 9,
            "componentType" : 5126,
            "count" : 48132,
            "type" : "VEC2"
        },
        {
            "bufferView" : 10,
            "componentType" : 5126,
            "count" : 48132,
            "type" : "VEC3"
        },
        {
            "bufferView" : 11,
            "componentType" : 5123,
            "count" : 48132,
            "type" : "SCALAR"
        },
        {
            "bufferView" : 12,
            "componentType" : 5126,
            "count" : 4659,
            "max" : [
                0.9616661071777344,
                2.715815544128418,
                1.2016571760177612
            ],
            "min" : [
                -1.223402976989746,
                0.8375825881958008,
                -1.1670628786087036
            ],
            "type" : "VEC3"
        },
        {
            "bufferView" : 13,
            "componentType" : 5126,
            "count" : 4659,
            "type" : "VEC2"
        },
        {
            "bufferView" : 14,
            "componentType" : 5126,
            "count" : 4659,
            "type" : "VEC3"
        },
        {
            "bufferView" : 15,
            "componentType" : 5123,
            "count" : 4659,
            "type" : "SCALAR"
        }
    ],
    "bufferViews" : [
        {
            "buffer" : 0,
            "byteLength" : 1698552,
            "byteOffset" : 0,
            "target" : 34962
        },
        {
            "buffer" : 0,
            "byteLength" : 1132368,
            "byteOffset" : 1698552,
            "target" : 34962
        },
        {
            "buffer" : 0,
            "byteLength" : 1698552,
            "byteOffset" : 2830920,
            "target" : 34962
        },
        {
            "buffer" : 0,
            "byteLength" : 566184,
            "byteOffset" : 4529472,
            "target" : 34963
        },
        {
            "buffer" : 0,
            "byteLength" : 24372,
            "byteOffset" : 5095656,
            "target" : 34962
        },
        {
            "buffer" : 0,
            "byteLength" : 16248,
            "byteOffset" : 5120028,
            "target" : 34962
        },
        {
            "buffer" : 0,
            "byteLength" : 24372,
            "byteOffset" : 5136276,
            "target" : 34962
        },
        {
            "buffer" : 0,
            "byteLength" : 4062,
            "byteOffset" : 5160648,
            "target" : 34963
        },
        {
            "buffer" : 0,
            "byteLength" : 577584,
            "byteOffset" : 5164712,
            "target" : 34962
        },
        {
            "buffer" : 0,
            "byteLength" : 385056,
            "byteOffset" : 5742296,
            "target" : 34962
        },
        {
            "buffer" : 0,
            "byteLength" : 577584,
            "byteOffset" : 6127352,
            "target" : 34962
        },
        {
            "buffer" : 0,
            "byteLength" : 96264,
            "byteOffset" : 6704936,
            "target" : 34963
        },
        {
            "buffer" : 0,
            "byteLength" : 55908,
            "byteOffset" : 6801200,
            "target" : 34962
        },
        {
            "buffer" : 0,
            "byteLength" : 37272,
            "byteOffset" : 6857108,
            "target" : 34962
        },
        {
            "buffer" : 0,
            "byteLength" : 55908,
            "byteOffset" : 6894380,
            "target" : 34962
        },
        {
            "buffer" : 0,
            "byteLength" : 9318,
            "byteOffset" : 6950288,
            "target" : 34963
        }
    ],
    "buffers" : [
        {
            "byteLength" : 6959608,
            "uri" : "birch_treesss.bin"
        }
    ]
}
