{
  "accessors": [
    {
      "bufferView": 2,
      "componentType": 5126,
      "count": 14806,
      "max": [
        0.03418613225221634,
        0.20981280505657196,
        0.19339853525161743
      ],
      "min": [
        -0.03434101864695549,
        0.029893752187490463,
        -0.0026790027040988207
      ],
      "type": "VEC3"
    },
    {
      "bufferView": 2,
      "byteOffset": 177672,
      "componentType": 5126,
      "count": 14806,
      "max": [
        1.0,
        1.0,
        1.0
      ],
      "min": [
        -1.0,
        -1.0,
        -1.0
      ],
      "type": "VEC3"
    },
    {
      "bufferView": 1,
      "componentType": 5126,
      "count": 14806,
      "max": [
        0.0,
        0.0
      ],
      "min": [
        0.0,
        0.0
      ],
      "type": "VEC2"
    },
    {
      "bufferView": 1,
      "byteOffset": 118448,
      "componentType": 5126,
      "count": 14806,
      "max": [
        0.0,
        0.0
      ],
      "min": [
        0.0,
        0.0
      ],
      "type": "VEC2"
    },
    {
      "bufferView": 0,
      "componentType": 5125,
      "count": 88224,
      "type": "SCALAR"
    },
    {
      "bufferView": 2,
      "byteOffset": 355344,
      "componentType": 5126,
      "count": 4422,
      "max": [
        0.028477337211370468,
        0.09227026253938675,
        0.21960923075675964
      ],
      "min": [
        -0.028635220602154732,
        0.03516112640500069,
        0.21650215983390808
      ],
      "type": "VEC3"
    },
    {
      "bufferView": 2,
      "byteOffset": 408408,
      "componentType": 5126,
      "count": 4422,
      "max": [
        0.9999983310699463,
        0.9999716281890869,
        0.999992847442627
      ],
      "min": [
        -0.9999998807907104,
        -0.9999861717224121,
        -0.9999992847442627
      ],
      "type": "VEC3"
    },
    {
      "bufferView": 1,
      "byteOffset": 236896,
      "componentType": 5126,
      "count": 4422,
      "max": [
        0.0,
        0.0
      ],
      "min": [
        0.0,
        0.0
      ],
      "type": "VEC2"
    },
    {
      "bufferView": 1,
      "byteOffset": 272272,
      "componentType": 5126,
      "count": 4422,
      "max": [
        0.0,
        0.0
      ],
      "min": [
        0.0,
        0.0
      ],
      "type": "VEC2"
    },
    {
      "bufferView": 0,
      "byteOffset": 352896,
      "componentType": 5125,
      "count": 26304,
      "type": "SCALAR"
    },
    {
      "bufferView": 2,
      "byteOffset": 461472,
      "componentType": 5126,
      "count": 5184,
      "max": [
        0.011928808875381947,
        0.11852682381868362,
        0.01206065621227026
      ],
      "min": [
        -0.01206895150244236,
        0.08991117775440216,
        -0.011937075294554234
      ],
      "type": "VEC3"
    },
    {
      "bufferView": 2,
      "byteOffset": 523680,
      "componentType": 5126,
      "count": 5184,
      "max": [
        1.0,
        1.0,
        1.0
      ],
      "min": [
        -1.0,
        -0.8805113434791565,
        -1.0
      ],
      "type": "VEC3"
    },
    {
      "bufferView": 1,
      "byteOffset": 307648,
      "componentType": 5126,
      "count": 5184,
      "max": [
        0.0,
        0.0
      ],
      "min": [
        0.0,
        0.0
      ],
      "type": "VEC2"
    },
    {
      "bufferView": 1,
      "byteOffset": 349120,
      "componentType": 5126,
      "count": 5184,
      "max": [
        0.0,
        0.0
      ],
      "min": [
        0.0,
        0.0
      ],
      "type": "VEC2"
    },
    {
      "bufferView": 0,
      "byteOffset": 458112,
      "componentType": 5125,
      "count": 30720,
      "type": "SCALAR"
    },
    {
      "bufferView": 2,
      "byteOffset": 585888,
      "componentType": 5126,
      "count": 1953,
      "max": [
        0.02483917400240898,
        -0.018047772347927094,
        0.02484077587723732
      ],
      "min": [
        -0.024842452257871628,
        -0.05173719301819801,
        -0.024840794503688812
      ],
      "type": "VEC3"
    },
    {
      "bufferView": 2,
      "byteOffset": 609324,
      "componentType": 5126,
      "count": 1953,
      "max": [
        0.9993425607681274,
        0.3370889127254486,
        0.9993436336517334
      ],
      "min": [
        -0.9993436336517334,
        -1.0,
        -0.9993436336517334
      ],
      "type": "VEC3"
    },
    {
      "bufferView": 1,
      "byteOffset": 390592,
      "componentType": 5126,
      "count": 1953,
      "max": [
        0.0,
        0.0
      ],
      "min": [
        0.0,
        0.0
      ],
      "type": "VEC2"
    },
    {
      "bufferView": 1,
      "byteOffset": 406216,
      "componentType": 5126,
      "count": 1953,
      "max": [
        0.0,
        0.0
      ],
      "min": [
        0.0,
        0.0
      ],
      "type": "VEC2"
    },
    {
      "bufferView": 0,
      "byteOffset": 580992,
      "componentType": 5125,
      "count": 11520,
      "type": "SCALAR"
    },
    {
      "bufferView": 2,
      "byteOffset": 632760,
      "componentType": 5126,
      "count": 3745,
      "max": [
        0.007933472283184528,
        0.024814140051603317,
        0.007935499772429466
      ],
      "min": [
        -0.007937278598546982,
        0.01103851106017828,
        -0.00793523620814085
      ],
      "type": "VEC3"
    },
    {
      "bufferView": 2,
      "byteOffset": 677700,
      "componentType": 5126,
      "count": 3745,
      "max": [
        1.0,
        1.0,
        1.0
      ],
      "min": [
        -1.0,
        -0.7336891293525696,
        -1.0
      ],
      "type": "VEC3"
    },
    {
      "bufferView": 1,
      "byteOffset": 421840,
      "componentType": 5126,
      "count": 3745,
      "max": [
        0.0,
        0.0
      ],
      "min": [
        0.0,
        0.0
      ],
      "type": "VEC2"
    },
    {
      "bufferView": 1,
      "byteOffset": 451800,
      "componentType": 5126,
      "count": 3745,
      "max": [
        0.0,
        0.0
      ],
      "min": [
        0.0,
        0.0
      ],
      "type": "VEC2"
    },
    {
      "bufferView": 0,
      "byteOffset": 627072,
      "componentType": 5125,
      "count": 21888,
      "type": "SCALAR"
    },
    {
      "bufferView": 2,
      "byteOffset": 722640,
      "componentType": 5126,
      "count": 1920,
      "max": [
        0.023571452125906944,
        0.024641428142786026,
        0.023572785779833794
      ],
      "min": [
        -0.023574188351631165,
        -0.01804780401289463,
        -0.023572800680994987
      ],
      "type": "VEC3"
    },
    {
      "bufferView": 2,
      "byteOffset": 745680,
      "componentType": 5126,
      "count": 1920,
      "max": [
        0.997485876083374,
        0.8751122355461121,
        0.997485876083374
      ],
      "min": [
        -0.997485876083374,
        0.07083481550216675,
        -0.997485876083374
      ],
      "type": "VEC3"
    },
    {
      "bufferView": 1,
      "byteOffset": 481760,
      "componentType": 5126,
      "count": 1920,
      "max": [
        0.0,
        0.0
      ],
      "min": [
        0.0,
        0.0
      ],
      "type": "VEC2"
    },
    {
      "bufferView": 1,
      "byteOffset": 497120,
      "componentType": 5126,
      "count": 1920,
      "max": [
        0.0,
        0.0
      ],
      "min": [
        0.0,
        0.0
      ],
      "type": "VEC2"
    },
    {
      "bufferView": 0,
      "byteOffset": 714624,
      "componentType": 5125,
      "count": 10752,
      "type": "SCALAR"
    },
    {
      "bufferView": 2,
      "byteOffset": 768720,
      "componentType": 5126,
      "count": 534,
      "max": [
        0.008896962739527225,
        0.035696808248758316,
        0.008896962739527225
      ],
      "min": [
        -0.008896962739527225,
        -0.011570191010832787,
        -0.008896962739527225
      ],
      "type": "VEC3"
    },
    {
      "bufferView": 2,
      "byteOffset": 775128,
      "componentType": 5126,
      "count": 534,
      "max": [
        1.0,
        0.99844890832901,
        1.0
      ],
      "min": [
        -1.0,
        -0.8734697103500366,
        -1.0
      ],
      "type": "VEC3"
    },
    {
      "bufferView": 1,
      "byteOffset": 512480,
      "componentType": 5126,
      "count": 534,
      "max": [
        0.8483301997184753,
        1.0
      ],
      "min": [
        0.0,
        0.0
      ],
      "type": "VEC2"
    },
    {
      "bufferView": 0,
      "byteOffset": 757632,
      "componentType": 5125,
      "count": 2304,
      "type": "SCALAR"
    },
    {
      "bufferView": 2,
      "byteOffset": 781536,
      "componentType": 5126,
      "count": 5714,
      "max": [
        0.00873878225684166,
        0.007698966655880213,
        0.015391343273222446
      ],
      "min": [
        -0.008753244765102863,
        -0.0011808667331933975,
        -0.015380430035293102
      ],
      "type": "VEC3"
    },
    {
      "bufferView": 2,
      "byteOffset": 850104,
      "componentType": 5126,
      "count": 5714,
      "max": [
        0.9999617338180542,
        1.0,
        0.9999617338180542
      ],
      "min": [
        -0.9999617338180542,
        -0.6709960699081421,
        -0.9999617338180542
      ],
      "type": "VEC3"
    },
    {
      "bufferView": 1,
      "byteOffset": 516752,
      "componentType": 5126,
      "count": 5714,
      "max": [
        0.0,
        0.0
      ],
      "min": [
        0.0,
        0.0
      ],
      "type": "VEC2"
    },
    {
      "bufferView": 0,
      "byteOffset": 766848,
      "componentType": 5125,
      "count": 33984,
      "type": "SCALAR"
    },
    {
      "bufferView": 2,
      "byteOffset": 918672,
      "componentType": 5126,
      "count": 7461,
      "max": [
        0.1004406288266182,
        0.09905240684747696,
        0.10044068843126297
      ],
      "min": [
        -0.10044075548648834,
        -0.07353423535823822,
        -0.10044071823358536
      ],
      "type": "VEC3"
    },
    {
      "bufferView": 2,
      "byteOffset": 1008204,
      "componentType": 5126,
      "count": 7461,
      "max": [
        1.0,
        1.0,
        1.0
      ],
      "min": [
        -1.0,
        -0.9902154803276062,
        -1.0
      ],
      "type": "VEC3"
    },
    {
      "bufferView": 1,
      "byteOffset": 562464,
      "componentType": 5126,
      "count": 7461,
      "max": [
        1.0000001192092896,
        0.8750001788139343
      ],
      "min": [
        0.0,
        0.5
      ],
      "type": "VEC2"
    },
    {
      "bufferView": 1,
      "byteOffset": 622152,
      "componentType": 5126,
      "count": 7461,
      "max": [
        2.9606521129608154,
        2.1087255477905273
      ],
      "min": [
        -1.6941779851913452,
        -0.5126928091049194
      ],
      "type": "VEC2"
    },
    {
      "bufferView": 0,
      "byteOffset": 902784,
      "componentType": 5125,
      "count": 38400,
      "type": "SCALAR"
    }
  ],
  "asset": {
    "extras": {
      "author": "mrs.noita (https://sketchfab.com/mrs.noita)",
      "license": "CC-BY-NC-4.0 (http://creativecommons.org/licenses/by-nc/4.0/)",
      "source": "https://sketchfab.com/3d-models/copper-lamp-4ca6b6e4245f46399303a9bb896f2ca0",
      "title": "Copper_Lamp"
    },
    "generator": "Sketchfab-13.42.0",
    "version": "2.0"
  },
  "bufferViews": [
    {
      "buffer": 0,
      "byteLength": 1056384,
      "name": "floatBufferViews",
      "target": 34963
    },
    {
      "buffer": 0,
      "byteLength": 681840,
      "byteOffset": 1056384,
      "byteStride": 8,
      "name": "floatBufferViews",
      "target": 34962
    },
    {
      "buffer": 0,
      "byteLength": 1097736,
      "byteOffset": 1738224,
      "byteStride": 12,
      "name": "floatBufferViews",
      "target": 34962
    }
  ],
  "buffers": [
    {
      "byteLength": 2835960,
      "uri": "scene.bin"
    }
  ],
  "materials": [
    {
      "doubleSided": true,
      "name": "Brushed__Copper.003",
      "pbrMetallicRoughness": {
        "baseColorFactor": [
          0.25213361127504363,
          0.0776541192360811,
          0.014451363141339595,
          1.0
        ],
        "metallicFactor": 0.6,
        "roughnessFactor": 0.4296161544873238
      }
    },
    {
      "doubleSided": true,
      "name": "Black_Plastic.001",
      "pbrMetallicRoughness": {
        "baseColorFactor": [
          0.0,
          0.0,
          0.0,
          1.0
        ],
        "metallicFactor": 0.0,
        "roughnessFactor": 0.6
      }
    },
    {
      "doubleSided": true,
      "emissiveFactor": [
        1.0,
        1.0,
        1.0
      ],
      "name": "LED.001",
      "pbrMetallicRoughness": {
        "baseColorFactor": [
          0.8,
          0.8,
          0.8,
          1.0
        ],
        "metallicFactor": 0.0,
        "roughnessFactor": 0.5
      }
    },
    {
      "doubleSided": true,
      "name": "Metal.006",
      "pbrMetallicRoughness": {
        "baseColorFactor": [
          0.287043,
          0.287043,
          0.287043,
          1.0
        ],
        "roughnessFactor": 0.2
      }
    },
    {
      "doubleSided": true,
      "name": "WhitePlastic",
      "pbrMetallicRoughness": {
        "baseColorFactor": [
          0.8,
          0.8,
          0.8,
          1.0
        ],
        "metallicFactor": 0.0,
        "roughnessFactor": 0.6
      }
    }
  ],
  "meshes": [
    {
      "name": "Object_0",
      "primitives": [
        {
          "attributes": {
            "NORMAL": 1,
            "POSITION": 0,
            "TEXCOORD_0": 2,
            "TEXCOORD_1": 3
          },
          "indices": 4,
          "material": 0,
          "mode": 4
        }
      ]
    },
    {
      "name": "Object_1",
      "primitives": [
        {
          "attributes": {
            "NORMAL": 6,
            "POSITION": 5,
            "TEXCOORD_0": 7,
            "TEXCOORD_1": 8
          },
          "indices": 9,
          "material": 1,
          "mode": 4
        }
      ]
    },
    {
      "name": "Object_2",
      "primitives": [
        {
          "attributes": {
            "NORMAL": 11,
            "POSITION": 10,
            "TEXCOORD_0": 12,
            "TEXCOORD_1": 13
          },
          "indices": 14,
          "material": 1,
          "mode": 4
        }
      ]
    },
    {
      "name": "Object_3",
      "primitives": [
        {
          "attributes": {
            "NORMAL": 16,
            "POSITION": 15,
            "TEXCOORD_0": 17,
            "TEXCOORD_1": 18
          },
          "indices": 19,
          "material": 2,
          "mode": 4
        }
      ]
    },
    {
      "name": "Object_4",
      "primitives": [
        {
          "attributes": {
            "NORMAL": 21,
            "POSITION": 20,
            "TEXCOORD_0": 22,
            "TEXCOORD_1": 23
          },
          "indices": 24,
          "material": 3,
          "mode": 4
        }
      ]
    },
    {
      "name": "Object_5",
      "primitives": [
        {
          "attributes": {
            "NORMAL": 26,
            "POSITION": 25,
            "TEXCOORD_0": 27,
            "TEXCOORD_1": 28
          },
          "indices": 29,
          "material": 4,
          "mode": 4
        }
      ]
    },
    {
      "name": "Object_6",
      "primitives": [
        {
          "attributes": {
            "NORMAL": 31,
            "POSITION": 30,
            "TEXCOORD_0": 32
          },
          "indices": 33,
          "material": 1,
          "mode": 4
        }
      ]
    },
    {
      "name": "Object_7",
      "primitives": [
        {
          "attributes": {
            "NORMAL": 35,
            "POSITION": 34,
            "TEXCOORD_0": 36
          },
          "indices": 37,
          "material": 0,
          "mode": 4
        }
      ]
    },
    {
      "name": "Object_8",
      "primitives": [
        {
          "attributes": {
            "NORMAL": 39,
            "POSITION": 38,
            "TEXCOORD_0": 40,
            "TEXCOORD_1": 41
          },
          "indices": 42,
          "material": 0,
          "mode": 4
        }
      ]
    }
  ],
  "nodes": [
    {
      "children": [
        1
      ],
      "matrix": [
        1.0,
        0.0,
        0.0,
        0.0,
        0.0,
        2.220446049250313e-16,
        -1.0,
        0.0,
        0.0,
        1.0,
        2.220446049250313e-16,
        0.0,
        0.0,
        0.0,
        0.0,
        1.0
      ],
      "name": "Sketchfab_model"
    },
    {
      "children": [
        2
      ],
      "name": "root"
    },
    {
      "children": [
        3
      ],
      "matrix": [
        1.0,
        0.0,
        0.0,
        0.0,
        0.0,
        2.220446049250313e-16,
        1.0,
        0.0,
        0.0,
        -1.0,
        2.220446049250313e-16,
        0.0,
        0.0,
        0.0,
        0.0,
        1.0
      ],
      "name": "GLTF_SceneRootNode"
    },
    {
      "children": [
        4,
        6,
        8,
        10,
        14,
        16,
        18
      ],
      "matrix": [
        -0.3363431344460368,
        0.0,
        -0.9417395053362767,
        0.0,
        0.0,
        1.0,
        0.0,
        0.0,
        0.9417395053362767,
        0.0,
        -0.3363431344460368,
        0.0,
        4.6613993644714355,
        0.776724100112915,
        3.4048256874084473,
        1.0
      ],
      "name": "CopperLamp_8"
    },
    {
      "children": [
        5
      ],
      "matrix": [
        -1.685873969314855e-07,
        0.0,
        -0.9999999999999858,
        0.0,
        0.0,
        1.0,
        0.0,
        0.0,
        0.9999999999999858,
        0.0,
        -1.685873969314855e-07,
        0.0,
        -0.19370555877685547,
        -0.06371569633483887,
        -7.724761962890625e-05,
        1.0
      ],
      "name": "Arm.001_1"
    },
    {
      "mesh": 0,
      "name": "Object_5"
    },
    {
      "children": [
        7
      ],
      "matrix": [
        -1.685873969314855e-07,
        0.0,
        -0.9999999999999858,
        0.0,
        0.0,
        1.0,
        0.0,
        0.0,
        0.9999999999999858,
        0.0,
        -1.685873969314855e-07,
        0.0,
        -0.219451904296875,
        -0.06371569633483887,
        -7.677078247070313e-05,
        1.0
      ],
      "name": "Backplate.001_2"
    },
    {
      "mesh": 1,
      "name": "Object_7"
    },
    {
      "children": [
        9
      ],
      "matrix": [
        -1.685873969314855e-07,
        0.0,
        -0.9999999999999858,
        0.0,
        0.0,
        1.0,
        0.0,
        0.0,
        0.9999999999999858,
        0.0,
        -1.685873969314855e-07,
        0.0,
        -0.19370555877685547,
        -0.06371569633483887,
        -7.724761962890625e-05,
        1.0
      ],
      "name": "Holder.001_3"
    },
    {
      "mesh": 2,
      "name": "Object_9"
    },
    {
      "children": [
        11,
        12,
        13
      ],
      "matrix": [
        -1.685873969314855e-07,
        0.0,
        -0.9999999999999858,
        0.0,
        0.0,
        1.0,
        0.0,
        0.0,
        0.9999999999999858,
        0.0,
        -1.685873969314855e-07,
        0.0,
        -0.19363117218017578,
        -0.015700817108154297,
        6.198883056640625e-06,
        1.0
      ],
      "name": "LED.001_4"
    },
    {
      "mesh": 3,
      "name": "Object_11"
    },
    {
      "mesh": 4,
      "name": "Object_12"
    },
    {
      "mesh": 5,
      "name": "Object_13"
    },
    {
      "children": [
        15
      ],
      "matrix": [
        1.0,
        0.0,
        0.0,
        0.0,
        0.0,
        1.0,
        0.0,
        0.0,
        0.0,
        0.0,
        1.0,
        0.0,
        -0.19363117218017578,
        0.006964445114135742,
        8.58306884765625e-06,
        1.0
      ],
      "name": "LED_holder.001_5"
    },
    {
      "mesh": 6,
      "name": "Object_15"
    },
    {
      "children": [
        17
      ],
      "matrix": [
        0.0,
        -0.903252218576694,
        0.4291100437373614,
        0.0,
        1.0,
        0.0,
        2.7755575615628914e-17,
        0.0,
        2.7755575615628914e-17,
        0.4291100437373614,
        0.903252218576694,
        0.0,
        -0.02043771743774414,
        6.389617919921875e-05,
        0.0004172325134277344,
        1.0
      ],
      "name": "Screws.001_6"
    },
    {
      "mesh": 7,
      "name": "Object_17"
    },
    {
      "children": [
        19
      ],
      "matrix": [
        -1.685873969314855e-07,
        0.0,
        -0.9999999999999858,
        0.0,
        0.0,
        1.0,
        0.0,
        0.0,
        0.9999999999999858,
        0.0,
        -1.685873969314855e-07,
        0.0,
        -0.19370651245117188,
        -0.06371569633483887,
        -7.796287536621094e-05,
        1.0
      ],
      "name": "Shade.001_7"
    },
    {
      "mesh": 8,
      "name": "Object_19"
    }
  ],
  "scene": 0,
  "scenes": [
    {
      "name": "Sketchfab_Scene",
      "nodes": [
        0
      ]
    }
  ]
}
