{
  "accessors": [
    {
      "bufferView": 2,
      "componentType": 5126,
      "count": 1528,
      "max": [
        90.74282836914063,
        -0.32212033867836,
        1.0
      ],
      "min": [
        -1.0,
        -0.5221203565597534,
        -4.914806842803955
      ],
      "type": "VEC3"
    },
    {
      "bufferView": 2,
      "byteOffset": 18336,
      "componentType": 5126,
      "count": 1528,
      "max": [
        1.0,
        1.0,
        1.0
      ],
      "min": [
        -1.0,
        -1.0,
        -1.0
      ],
      "type": "VEC3"
    },
    {
      "bufferView": 1,
      "componentType": 5126,
      "count": 1528,
      "max": [
        1.0,
        0.9669175744056702
      ],
      "min": [
        0.0,
        0.0
      ],
      "type": "VEC2"
    },
    {
      "bufferView": 0,
      "componentType": 5125,
      "count": 6336,
      "type": "SCALAR"
    },
    {
      "bufferView": 2,
      "byteOffset": 36672,
      "componentType": 5126,
      "count": 5704,
      "max": [
        0.812895655632019,
        60.1284065246582,
        15.404499053955078
      ],
      "min": [
        -98.62811279296875,
        -20.381492614746094,
        -14.60449504852295
      ],
      "type": "VEC3"
    },
    {
      "bufferView": 2,
      "byteOffset": 105120,
      "componentType": 5126,
      "count": 5704,
      "max": [
        0.9994617104530334,
        1.0,
        0.9994616508483887
      ],
      "min": [
        -0.9994615316390991,
        -1.0,
        -0.9994616508483887
      ],
      "type": "VEC3"
    },
    {
      "bufferView": 1,
      "byteOffset": 12224,
      "componentType": 5126,
      "count": 5704,
      "max": [
        1.0004749298095703,
        1.0013810396194458
      ],
      "min": [
        0.0,
        -0.02447199821472168
      ],
      "type": "VEC2"
    },
    {
      "bufferView": 0,
      "byteOffset": 25344,
      "componentType": 5125,
      "count": 21024,
      "type": "SCALAR"
    },
    {
      "bufferView": 2,
      "byteOffset": 173568,
      "componentType": 5126,
      "count": 342,
      "max": [
        48.099998474121094,
        0.949999988079071,
        4.0
      ],
      "min": [
        -48.099998474121094,
        -0.949999988079071,
        -4.0
      ],
      "type": "VEC3"
    },
    {
      "bufferView": 2,
      "byteOffset": 177672,
      "componentType": 5126,
      "count": 342,
      "max": [
        0.9938879013061523,
        0.9943870902061462,
        0.9938870668411255
      ],
      "min": [
        -0.9938879013061523,
        -0.9943869709968567,
        -0.9938870668411255
      ],
      "type": "VEC3"
    },
    {
      "bufferView": 1,
      "byteOffset": 57856,
      "componentType": 5126,
      "count": 342,
      "max": [
        1.0,
        1.0
      ],
      "min": [
        0.0,
        0.0
      ],
      "type": "VEC2"
    },
    {
      "bufferView": 0,
      "byteOffset": 109440,
      "componentType": 5125,
      "count": 1476,
      "type": "SCALAR"
    },
    {
      "bufferView": 2,
      "byteOffset": 181776,
      "componentType": 5126,
      "count": 610,
      "max": [
        48.099998474121094,
        0.1078614890575409,
        4.0
      ],
      "min": [
        -48.099998474121094,
        -1.7921384572982788,
        -4.0
      ],
      "type": "VEC3"
    },
    {
      "bufferView": 2,
      "byteOffset": 189096,
      "componentType": 5126,
      "count": 610,
      "max": [
        0.9978092908859253,
        1.0,
        0.9978091716766357
      ],
      "min": [
        -0.9978092908859253,
        -0.9943870902061462,
        -0.9978091716766357
      ],
      "type": "VEC3"
    },
    {
      "bufferView": 1,
      "byteOffset": 60592,
      "componentType": 5126,
      "count": 610,
      "max": [
        1.0,
        1.0
      ],
      "min": [
        0.0,
        0.0
      ],
      "type": "VEC2"
    },
    {
      "bufferView": 0,
      "byteOffset": 115344,
      "componentType": 5125,
      "count": 2268,
      "type": "SCALAR"
    },
    {
      "bufferView": 2,
      "byteOffset": 196416,
      "componentType": 5126,
      "count": 24,
      "max": [
        48.099998474121094,
        38.04999923706055,
        0.15000000596046448
      ],
      "min": [
        -48.099998474121094,
        -38.04999923706055,
        -0.15000000596046448
      ],
      "type": "VEC3"
    },
    {
      "bufferView": 2,
      "byteOffset": 196704,
      "componentType": 5126,
      "count": 24,
      "max": [
        1.0,
        1.0,
        1.0
      ],
      "min": [
        -1.0,
        -1.0,
        -1.0
      ],
      "type": "VEC3"
    },
    {
      "bufferView": 1,
      "byteOffset": 65472,
      "componentType": 5126,
      "count": 24,
      "max": [
        1.0,
        1.0
      ],
      "min": [
        0.0,
        0.0
      ],
      "type": "VEC2"
    },
    {
      "bufferView": 0,
      "byteOffset": 124416,
      "componentType": 5125,
      "count": 36,
      "type": "SCALAR"
    }
  ],
  "asset": {
    "extras": {
      "author": "e.kuechel (https://sketchfab.com/e.kuechel)",
      "license": "CC-BY-4.0 (http://creativecommons.org/licenses/by/4.0/)",
      "source": "https://sketchfab.com/3d-models/partition-sheet-622305f5ea0f47b7bf0f5e6d172ab390",
      "title": "Partition Sheet"
    },
    "generator": "Sketchfab-12.66.0",
    "version": "2.0"
  },
  "bufferViews": [
    {
      "buffer": 0,
      "byteLength": 124560,
      "name": "floatBufferViews",
      "target": 34963
    },
    {
      "buffer": 0,
      "byteLength": 65664,
      "byteOffset": 124560,
      "byteStride": 8,
      "name": "floatBufferViews",
      "target": 34962
    },
    {
      "buffer": 0,
      "byteLength": 196992,
      "byteOffset": 190224,
      "byteStride": 12,
      "name": "floatBufferViews",
      "target": 34962
    }
  ],
  "buffers": [
    {
      "byteLength": 387216,
      "uri": "scene.bin"
    }
  ],
  "materials": [
    {
      "doubleSided": true,
      "name": "Steel_-_Worn_Edges",
      "pbrMetallicRoughness": {
        "baseColorFactor": [
          0.0,
          0.0,
          0.0,
          1.0
        ],
        "metallicFactor": 0.0
      }
    },
    {
      "doubleSided": true,
      "name": "Walnut",
      "pbrMetallicRoughness": {
        "baseColorFactor": [
          0.019708368943048015,
          0.016780968612094896,
          0.016780968612094896,
          1.0
        ],
        "roughnessFactor": 0.7256978768687136
      }
    },
    {
      "alphaMode": "BLEND",
      "doubleSided": true,
      "name": "Glass_Frosted",
      "pbrMetallicRoughness": {
        "baseColorFactor": [
          0.9022800986427694,
          0.8228755431564793,
          0.8228755431564793,
          0.6948497893219999
        ],
        "metallicFactor": 0.0,
        "roughnessFactor": 0.1227450157780493
      }
    }
  ],
  "meshes": [
    {
      "name": "Schrauben_Steel - Worn Edges_0",
      "primitives": [
        {
          "attributes": {
            "NORMAL": 1,
            "POSITION": 0,
            "TEXCOORD_0": 2
          },
          "indices": 3,
          "material": 0,
          "mode": 4
        }
      ]
    },
    {
      "name": "Lathe_Walnut_0",
      "primitives": [
        {
          "attributes": {
            "NORMAL": 5,
            "POSITION": 4,
            "TEXCOORD_0": 6
          },
          "indices": 7,
          "material": 1,
          "mode": 4
        }
      ]
    },
    {
      "name": "Bottom_Walnut_0",
      "primitives": [
        {
          "attributes": {
            "NORMAL": 9,
            "POSITION": 8,
            "TEXCOORD_0": 10
          },
          "indices": 11,
          "material": 1,
          "mode": 4
        }
      ]
    },
    {
      "name": "Top_Walnut_0",
      "primitives": [
        {
          "attributes": {
            "NORMAL": 13,
            "POSITION": 12,
            "TEXCOORD_0": 14
          },
          "indices": 15,
          "material": 1,
          "mode": 4
        }
      ]
    },
    {
      "name": "Glass_Scheibe_Glass Frosted_0",
      "primitives": [
        {
          "attributes": {
            "NORMAL": 17,
            "POSITION": 16,
            "TEXCOORD_0": 18
          },
          "indices": 19,
          "material": 2,
          "mode": 4
        }
      ]
    }
  ],
  "nodes": [
    {
      "children": [
        1
      ],
      "matrix": [
        1.0,
        0.0,
        0.0,
        0.0,
        0.0,
        2.220446049250313e-16,
        -1.0,
        0.0,
        0.0,
        1.0,
        2.220446049250313e-16,
        0.0,
        0.0,
        0.0,
        0.0,
        1.0
      ],
      "name": "Sketchfab_model"
    },
    {
      "children": [
        2
      ],
      "matrix": [
        1.0,
        0.0,
        0.0,
        0.0,
        0.0,
        0.0,
        1.0,
        0.0,
        0.0,
        -1.0,
        0.0,
        0.0,
        0.0,
        0.0,
        0.0,
        1.0
      ],
      "name": "11cda5d40fe84104802938f701fe894a.fbx"
    },
    {
      "children": [
        3,
        5,
        7,
        9,
        11
      ],
      "name": "RootNode"
    },
    {
      "children": [
        4
      ],
      "matrix": [
        1.0,
        0.0,
        0.0,
        0.0,
        0.0,
        1.0,
        0.0,
        0.0,
        0.0,
        0.0,
        1.0,
        0.0,
        -44.87141418457031,
        80.29197692871094,
        1.957403540611267,
        1.0
      ],
      "name": "Schrauben"
    },
    {
      "mesh": 0,
      "name": "Schrauben_Steel - Worn Edges_0"
    },
    {
      "children": [
        6
      ],
      "matrix": [
        1.0,
        0.0,
        0.0,
        0.0,
        0.0,
        1.0,
        0.0,
        0.0,
        0.0,
        0.0,
        1.0,
        0.0,
        48.90760803222656,
        19.873287200927734,
        -0.4000000059604645,
        1.0
      ],
      "name": "Lathe"
    },
    {
      "mesh": 1,
      "name": "Lathe_Walnut_0"
    },
    {
      "children": [
        8
      ],
      "matrix": [
        1.0,
        0.0,
        0.0,
        0.0,
        0.0,
        1.0,
        0.0,
        0.0,
        0.0,
        0.0,
        1.0,
        0.0,
        0.0,
        0.949999988079071,
        0.0,
        1.0
      ],
      "name": "Bottom"
    },
    {
      "mesh": 2,
      "name": "Bottom_Walnut_0"
    },
    {
      "children": [
        10
      ],
      "matrix": [
        1.0,
        0.0,
        0.0,
        0.0,
        0.0,
        1.0,
        0.0,
        0.0,
        0.0,
        0.0,
        1.0,
        0.0,
        0.0,
        79.88875579833984,
        0.0,
        1.0
      ],
      "name": "Top"
    },
    {
      "mesh": 3,
      "name": "Top_Walnut_0"
    },
    {
      "children": [
        12
      ],
      "matrix": [
        1.0,
        0.0,
        0.0,
        0.0,
        0.0,
        1.0,
        0.0,
        0.0,
        0.0,
        0.0,
        1.0,
        0.0,
        0.0,
        40.053375244140625,
        0.0,
        1.0
      ],
      "name": "Glass_Scheibe"
    },
    {
      "mesh": 4,
      "name": "Glass_Scheibe_Glass Frosted_0"
    }
  ],
  "scene": 0,
  "scenes": [
    {
      "name": "Sketchfab_Scene",
      "nodes": [
        0
      ]
    }
  ]
}
