{
    "asset" : {
        "generator" : "Khronos glTF Blender I/O v3.4.50",
        "version" : "2.0"
    },
    "scene" : 0,
    "scenes" : [
        {
            "name" : "Scene",
            "nodes" : [
                0,
                1,
                2,
                3
            ]
        }
    ],
    "nodes" : [
        {
            "mesh" : 0,
            "name" : "Cylinder",
            "rotation" : [
                0,
                0,
                -0.24250493943691254,
                0.9701501727104187
            ],
            "scale" : [
                0.4280967712402344,
                0.6480967998504639,
                0.41809678077697754
            ],
            "translation" : [
                0.46189767122268677,
                1.242906093597412,
                0
            ]
        },
        {
            "mesh" : 1,
            "name" : "Cube.001",
            "scale" : [
                0.6599999666213989,
                1.3199999332427979,
                1.3600000143051147
            ],
            "translation" : [
                0.12945236265659332,
                -0.17658469080924988,
                0
            ]
        },
        {
            "mesh" : 2,
            "name" : "Cylinder.001",
            "rotation" : [
                0.007311794441193342,
                0.02634049579501152,
                -0.08624950051307678,
                0.9958984851837158
            ],
            "scale" : [
                1,
                0.5600000023841858,
                1
            ],
            "translation" : [
                0.7732189893722534,
                3.454425573348999,
                0
            ]
        },
        {
            "mesh" : 3,
            "name" : "Cube",
            "scale" : [
                0.9599999785423279,
                1.059999942779541,
                0.9200000166893005
            ],
            "translation" : [
                0,
                -0.11685310304164886,
                0
            ]
        }
    ],
    "animations" : [
        {
            "channels" : [
                {
                    "sampler" : 0,
                    "target" : {
                        "node" : 0,
                        "path" : "translation"
                    }
                },
                {
                    "sampler" : 1,
                    "target" : {
                        "node" : 0,
                        "path" : "rotation"
                    }
                }
            ],
            "name" : "CylinderAction",
            "samplers" : [
                {
                    "input" : 16,
                    "interpolation" : "LINEAR",
                    "output" : 17
                },
                {
                    "input" : 16,
                    "interpolation" : "LINEAR",
                    "output" : 18
                }
            ]
        },
        {
            "channels" : [
                {
                    "sampler" : 0,
                    "target" : {
                        "node" : 1,
                        "path" : "translation"
                    }
                },
                {
                    "sampler" : 1,
                    "target" : {
                        "node" : 1,
                        "path" : "rotation"
                    }
                }
            ],
            "name" : "Cube.001Action",
            "samplers" : [
                {
                    "input" : 16,
                    "interpolation" : "LINEAR",
                    "output" : 19
                },
                {
                    "input" : 16,
                    "interpolation" : "LINEAR",
                    "output" : 20
                }
            ]
        },
        {
            "channels" : [
                {
                    "sampler" : 0,
                    "target" : {
                        "node" : 2,
                        "path" : "translation"
                    }
                },
                {
                    "sampler" : 1,
                    "target" : {
                        "node" : 2,
                        "path" : "rotation"
                    }
                }
            ],
            "name" : "Cylinder.001Action",
            "samplers" : [
                {
                    "input" : 16,
                    "interpolation" : "LINEAR",
                    "output" : 21
                },
                {
                    "input" : 16,
                    "interpolation" : "LINEAR",
                    "output" : 22
                }
            ]
        },
        {
            "channels" : [
                {
                    "sampler" : 0,
                    "target" : {
                        "node" : 3,
                        "path" : "translation"
                    }
                },
                {
                    "sampler" : 1,
                    "target" : {
                        "node" : 3,
                        "path" : "rotation"
                    }
                }
            ],
            "name" : "CubeAction",
            "samplers" : [
                {
                    "input" : 16,
                    "interpolation" : "LINEAR",
                    "output" : 23
                },
                {
                    "input" : 16,
                    "interpolation" : "LINEAR",
                    "output" : 24
                }
            ]
        }
    ],
    "materials" : [
        {
            "doubleSided" : true,
            "name" : "Material.002",
            "pbrMetallicRoughness" : {
                "baseColorTexture" : {
                    "index" : 0
                },
                "metallicFactor" : 0,
                "roughnessFactor" : 0.5
            }
        },
        {
            "doubleSided" : true,
            "name" : "Material.001",
            "pbrMetallicRoughness" : {
                "baseColorTexture" : {
                    "index" : 1
                },
                "metallicFactor" : 0,
                "roughnessFactor" : 0.5
            }
        },
        {
            "doubleSided" : true,
            "name" : "Material.004",
            "pbrMetallicRoughness" : {
                "baseColorTexture" : {
                    "index" : 2
                },
                "metallicFactor" : 0,
                "roughnessFactor" : 0.5
            }
        },
        {
            "doubleSided" : true,
            "name" : "Material",
            "pbrMetallicRoughness" : {
                "baseColorTexture" : {
                    "index" : 3
                },
                "metallicFactor" : 0,
                "roughnessFactor" : 0.5
            }
        }
    ],
    "meshes" : [
        {
            "name" : "Cylinder",
            "primitives" : [
                {
                    "attributes" : {
                        "POSITION" : 0,
                        "TEXCOORD_0" : 1,
                        "NORMAL" : 2
                    },
                    "indices" : 3,
                    "material" : 0
                }
            ]
        },
        {
            "name" : "Cube.001",
            "primitives" : [
                {
                    "attributes" : {
                        "POSITION" : 4,
                        "TEXCOORD_0" : 5,
                        "NORMAL" : 6
                    },
                    "indices" : 7,
                    "material" : 1
                }
            ]
        },
        {
            "name" : "Cylinder.001",
            "primitives" : [
                {
                    "attributes" : {
                        "POSITION" : 8,
                        "TEXCOORD_0" : 9,
                        "NORMAL" : 10
                    },
                    "indices" : 11,
                    "material" : 2
                }
            ]
        },
        {
            "name" : "Cube",
            "primitives" : [
                {
                    "attributes" : {
                        "POSITION" : 12,
                        "TEXCOORD_0" : 13,
                        "NORMAL" : 14
                    },
                    "indices" : 15,
                    "material" : 3
                }
            ]
        }
    ],
    "textures" : [
        {
            "sampler" : 0,
            "source" : 0
        },
        {
            "sampler" : 0,
            "source" : 1
        },
        {
            "sampler" : 0,
            "source" : 2
        },
        {
            "sampler" : 0,
            "source" : 3
        }
    ],
    "images" : [
        {
            "mimeType" : "image/png",
            "name" : "Untitled",
            "uri" : "Untitled.png"
        },
        {
            "mimeType" : "image/png",
            "name" : "cloth",
            "uri" : "cloth.png"
        },
        {
            "mimeType" : "image/png",
            "name" : "Untitled",
            "uri" : "Untitled-1.png"
        },
        {
            "mimeType" : "image/png",
            "name" : "Untitled",
            "uri" : "Untitled-2.png"
        }
    ],
    "accessors" : [
        {
            "bufferView" : 0,
            "componentType" : 5126,
            "count" : 192,
            "max" : [
                1,
                1,
                1
            ],
            "min" : [
                -1,
                -1,
                -1
            ],
            "type" : "VEC3"
        },
        {
            "bufferView" : 1,
            "componentType" : 5126,
            "count" : 192,
            "type" : "VEC2"
        },
        {
            "bufferView" : 2,
            "componentType" : 5126,
            "count" : 192,
            "type" : "VEC3"
        },
        {
            "bufferView" : 3,
            "componentType" : 5123,
            "count" : 372,
            "type" : "SCALAR"
        },
        {
            "bufferView" : 4,
            "componentType" : 5126,
            "count" : 694,
            "max" : [
                3.15897274017334,
                1,
                1.995701551437378
            ],
            "min" : [
                -1.4779633283615112,
                -8.732217788696289,
                -1.735288143157959
            ],
            "type" : "VEC3"
        },
        {
            "bufferView" : 5,
            "componentType" : 5126,
            "count" : 694,
            "type" : "VEC2"
        },
        {
            "bufferView" : 6,
            "componentType" : 5126,
            "count" : 694,
            "type" : "VEC3"
        },
        {
            "bufferView" : 7,
            "componentType" : 5123,
            "count" : 1074,
            "type" : "SCALAR"
        },
        {
            "bufferView" : 8,
            "componentType" : 5126,
            "count" : 448,
            "max" : [
                2.19716739654541,
                0.27239465713500977,
                2.1971676349639893
            ],
            "min" : [
                -2.197167158126831,
                -1.1032156944274902,
                -2.1971676349639893
            ],
            "type" : "VEC3"
        },
        {
            "bufferView" : 9,
            "componentType" : 5126,
            "count" : 448,
            "type" : "VEC2"
        },
        {
            "bufferView" : 10,
            "componentType" : 5126,
            "count" : 448,
            "type" : "VEC3"
        },
        {
            "bufferView" : 11,
            "componentType" : 5123,
            "count" : 756,
            "type" : "SCALAR"
        },
        {
            "bufferView" : 12,
            "componentType" : 5126,
            "count" : 2320,
            "max" : [
                1.677625298500061,
                3.3913156986236572,
                0.9999993443489075
            ],
            "min" : [
                -1.059670329093933,
                -1.1989878416061401,
                -1
            ],
            "type" : "VEC3"
        },
        {
            "bufferView" : 13,
            "componentType" : 5126,
            "count" : 2320,
            "type" : "VEC2"
        },
        {
            "bufferView" : 14,
            "componentType" : 5126,
            "count" : 2320,
            "type" : "VEC3"
        },
        {
            "bufferView" : 15,
            "componentType" : 5123,
            "count" : 3384,
            "type" : "SCALAR"
        },
        {
            "bufferView" : 16,
            "componentType" : 5126,
            "count" : 161,
            "max" : [
                6.666666666666667
            ],
            "min" : [
                0
            ],
            "type" : "SCALAR"
        },
        {
            "bufferView" : 17,
            "componentType" : 5126,
            "count" : 161,
            "type" : "VEC3"
        },
        {
            "bufferView" : 18,
            "componentType" : 5126,
            "count" : 161,
            "type" : "VEC4"
        },
        {
            "bufferView" : 19,
            "componentType" : 5126,
            "count" : 161,
            "type" : "VEC3"
        },
        {
            "bufferView" : 20,
            "componentType" : 5126,
            "count" : 161,
            "type" : "VEC4"
        },
        {
            "bufferView" : 21,
            "componentType" : 5126,
            "count" : 161,
            "type" : "VEC3"
        },
        {
            "bufferView" : 22,
            "componentType" : 5126,
            "count" : 161,
            "type" : "VEC4"
        },
        {
            "bufferView" : 23,
            "componentType" : 5126,
            "count" : 161,
            "type" : "VEC3"
        },
        {
            "bufferView" : 24,
            "componentType" : 5126,
            "count" : 161,
            "type" : "VEC4"
        }
    ],
    "bufferViews" : [
        {
            "buffer" : 0,
            "byteLength" : 2304,
            "byteOffset" : 0,
            "target" : 34962
        },
        {
            "buffer" : 0,
            "byteLength" : 1536,
            "byteOffset" : 2304,
            "target" : 34962
        },
        {
            "buffer" : 0,
            "byteLength" : 2304,
            "byteOffset" : 3840,
            "target" : 34962
        },
        {
            "buffer" : 0,
            "byteLength" : 744,
            "byteOffset" : 6144,
            "target" : 34963
        },
        {
            "buffer" : 0,
            "byteLength" : 8328,
            "byteOffset" : 6888,
            "target" : 34962
        },
        {
            "buffer" : 0,
            "byteLength" : 5552,
            "byteOffset" : 15216,
            "target" : 34962
        },
        {
            "buffer" : 0,
            "byteLength" : 8328,
            "byteOffset" : 20768,
            "target" : 34962
        },
        {
            "buffer" : 0,
            "byteLength" : 2148,
            "byteOffset" : 29096,
            "target" : 34963
        },
        {
            "buffer" : 0,
            "byteLength" : 5376,
            "byteOffset" : 31244,
            "target" : 34962
        },
        {
            "buffer" : 0,
            "byteLength" : 3584,
            "byteOffset" : 36620,
            "target" : 34962
        },
        {
            "buffer" : 0,
            "byteLength" : 5376,
            "byteOffset" : 40204,
            "target" : 34962
        },
        {
            "buffer" : 0,
            "byteLength" : 1512,
            "byteOffset" : 45580,
            "target" : 34963
        },
        {
            "buffer" : 0,
            "byteLength" : 27840,
            "byteOffset" : 47092,
            "target" : 34962
        },
        {
            "buffer" : 0,
            "byteLength" : 18560,
            "byteOffset" : 74932,
            "target" : 34962
        },
        {
            "buffer" : 0,
            "byteLength" : 27840,
            "byteOffset" : 93492,
            "target" : 34962
        },
        {
            "buffer" : 0,
            "byteLength" : 6768,
            "byteOffset" : 121332,
            "target" : 34963
        },
        {
            "buffer" : 0,
            "byteLength" : 644,
            "byteOffset" : 128100
        },
        {
            "buffer" : 0,
            "byteLength" : 1932,
            "byteOffset" : 128744
        },
        {
            "buffer" : 0,
            "byteLength" : 2576,
            "byteOffset" : 130676
        },
        {
            "buffer" : 0,
            "byteLength" : 1932,
            "byteOffset" : 133252
        },
        {
            "buffer" : 0,
            "byteLength" : 2576,
            "byteOffset" : 135184
        },
        {
            "buffer" : 0,
            "byteLength" : 1932,
            "byteOffset" : 137760
        },
        {
            "buffer" : 0,
            "byteLength" : 2576,
            "byteOffset" : 139692
        },
        {
            "buffer" : 0,
            "byteLength" : 1932,
            "byteOffset" : 142268
        },
        {
            "buffer" : 0,
            "byteLength" : 2576,
            "byteOffset" : 144200
        }
    ],
    "samplers" : [
        {
            "magFilter" : 9729,
            "minFilter" : 9987
        }
    ],
    "buffers" : [
        {
            "byteLength" : 146776,
            "uri" : "walkingman.bin"
        }
    ]
}
