{
    "asset" : {
        "generator" : "Khronos glTF Blender I/O v3.4.50",
        "version" : "2.0"
    },
    "scene" : 0,
    "scenes" : [
        {
            "name" : "Scene",
            "nodes" : [
                0
            ]
        }
    ],
    "nodes" : [
        {
            "mesh" : 0,
            "name" : "Tree.Birch"
        }
    ],
    "materials" : [
        {
            "doubleSided" : true,
            "name" : "Tree.Birch.Leaf.Summer.Mat",
            "pbrMetallicRoughness" : {
                "baseColorFactor" : [
                    0.775295078754425,
                    0.8513494729995728,
                    0.9042314291000366,
                    1
                ],
                "metallicFactor" : 0,
                "roughnessFactor" : 0.5
            }
        },
        {
            "doubleSided" : true,
            "name" : "Tree.Birch.Bark.Mat",
            "pbrMetallicRoughness" : {
                "baseColorFactor" : [
                    0.012286419048905373,
                    0.012286442331969738,
                    0.09989871829748154,
                    1
                ],
                "metallicFactor" : 0,
                "roughnessFactor" : 0.5
            }
        },
        {
            "doubleSided" : true,
            "name" : "Material",
            "pbrMetallicRoughness" : {
                "baseColorFactor" : [
                    0.14563611149787903,
                    0.20980818569660187,
                    0.5542144775390625,
                    1
                ],
                "metallicFactor" : 0,
                "roughnessFactor" : 0.4000000059604645
            }
        },
        {
            "doubleSided" : true,
            "name" : "Material.001",
            "pbrMetallicRoughness" : {
                "baseColorFactor" : [
                    0.012286419048905373,
                    0.012286442331969738,
                    0.09989871829748154,
                    1
                ],
                "metallicFactor" : 0,
                "roughnessFactor" : 0.4000000059604645
            }
        }
    ],
    "meshes" : [
        {
            "name" : "sub02",
            "primitives" : [
                {
                    "attributes" : {
                        "POSITION" : 0,
                        "TEXCOORD_0" : 1,
                        "NORMAL" : 2
                    },
                    "indices" : 3,
                    "material" : 0
                },
                {
                    "attributes" : {
                        "POSITION" : 4,
                        "TEXCOORD_0" : 5,
                        "NORMAL" : 6
                    },
                    "indices" : 7,
                    "material" : 1
                },
                {
                    "attributes" : {
                        "POSITION" : 8,
                        "TEXCOORD_0" : 9,
                        "NORMAL" : 10
                    },
                    "indices" : 11,
                    "material" : 2
                },
                {
                    "attributes" : {
                        "POSITION" : 12,
                        "TEXCOORD_0" : 13,
                        "NORMAL" : 14
                    },
                    "indices" : 15,
                    "material" : 3
                }
            ]
        }
    ],
    "accessors" : [
        {
            "bufferView" : 0,
            "componentType" : 5126,
            "count" : 159678,
            "max" : [
                1.057166576385498,
                3.898221015930176,
                1.174425482749939
            ],
            "min" : [
                -1.2520685195922852,
                0.8800487518310547,
                -1.12883722782135
            ],
            "type" : "VEC3"
        },
        {
            "bufferView" : 1,
            "componentType" : 5126,
            "count" : 159678,
            "type" : "VEC2"
        },
        {
            "bufferView" : 2,
            "componentType" : 5126,
            "count" : 159678,
            "type" : "VEC3"
        },
        {
            "bufferView" : 3,
            "componentType" : 5125,
            "count" : 159678,
            "type" : "SCALAR"
        },
        {
            "bufferView" : 4,
            "componentType" : 5126,
            "count" : 2073,
            "max" : [
                0.8214147090911865,
                3.387470245361328,
                1.0261348485946655
            ],
            "min" : [
                -0.9788229465484619,
                -0.020649908110499382,
                -0.8908761739730835
            ],
            "type" : "VEC3"
        },
        {
            "bufferView" : 5,
            "componentType" : 5126,
            "count" : 2073,
            "type" : "VEC2"
        },
        {
            "bufferView" : 6,
            "componentType" : 5126,
            "count" : 2073,
            "type" : "VEC3"
        },
        {
            "bufferView" : 7,
            "componentType" : 5123,
            "count" : 2073,
            "type" : "SCALAR"
        },
        {
            "bufferView" : 8,
            "componentType" : 5126,
            "count" : 29769,
            "max" : [
                1.140638828277588,
                3.898221015930176,
                1.1372970342636108
            ],
            "min" : [
                -1.1583032608032227,
                1.3122873306274414,
                -1.1140729188919067
            ],
            "type" : "VEC3"
        },
        {
            "bufferView" : 9,
            "componentType" : 5126,
            "count" : 29769,
            "type" : "VEC2"
        },
        {
            "bufferView" : 10,
            "componentType" : 5126,
            "count" : 29769,
            "type" : "VEC3"
        },
        {
            "bufferView" : 11,
            "componentType" : 5123,
            "count" : 29769,
            "type" : "SCALAR"
        },
        {
            "bufferView" : 12,
            "componentType" : 5126,
            "count" : 4848,
            "max" : [
                0.9616661071777344,
                2.715815544128418,
                1.2016571760177612
            ],
            "min" : [
                -1.223402976989746,
                0.8375825881958008,
                -1.1670628786087036
            ],
            "type" : "VEC3"
        },
        {
            "bufferView" : 13,
            "componentType" : 5126,
            "count" : 4848,
            "type" : "VEC2"
        },
        {
            "bufferView" : 14,
            "componentType" : 5126,
            "count" : 4848,
            "type" : "VEC3"
        },
        {
            "bufferView" : 15,
            "componentType" : 5123,
            "count" : 4848,
            "type" : "SCALAR"
        }
    ],
    "bufferViews" : [
        {
            "buffer" : 0,
            "byteLength" : 1916136,
            "byteOffset" : 0,
            "target" : 34962
        },
        {
            "buffer" : 0,
            "byteLength" : 1277424,
            "byteOffset" : 1916136,
            "target" : 34962
        },
        {
            "buffer" : 0,
            "byteLength" : 1916136,
            "byteOffset" : 3193560,
            "target" : 34962
        },
        {
            "buffer" : 0,
            "byteLength" : 638712,
            "byteOffset" : 5109696,
            "target" : 34963
        },
        {
            "buffer" : 0,
            "byteLength" : 24876,
            "byteOffset" : 5748408,
            "target" : 34962
        },
        {
            "buffer" : 0,
            "byteLength" : 16584,
            "byteOffset" : 5773284,
            "target" : 34962
        },
        {
            "buffer" : 0,
            "byteLength" : 24876,
            "byteOffset" : 5789868,
            "target" : 34962
        },
        {
            "buffer" : 0,
            "byteLength" : 4146,
            "byteOffset" : 5814744,
            "target" : 34963
        },
        {
            "buffer" : 0,
            "byteLength" : 357228,
            "byteOffset" : 5818892,
            "target" : 34962
        },
        {
            "buffer" : 0,
            "byteLength" : 238152,
            "byteOffset" : 6176120,
            "target" : 34962
        },
        {
            "buffer" : 0,
            "byteLength" : 357228,
            "byteOffset" : 6414272,
            "target" : 34962
        },
        {
            "buffer" : 0,
            "byteLength" : 59538,
            "byteOffset" : 6771500,
            "target" : 34963
        },
        {
            "buffer" : 0,
            "byteLength" : 58176,
            "byteOffset" : 6831040,
            "target" : 34962
        },
        {
            "buffer" : 0,
            "byteLength" : 38784,
            "byteOffset" : 6889216,
            "target" : 34962
        },
        {
            "buffer" : 0,
            "byteLength" : 58176,
            "byteOffset" : 6928000,
            "target" : 34962
        },
        {
            "buffer" : 0,
            "byteLength" : 9696,
            "byteOffset" : 6986176,
            "target" : 34963
        }
    ],
    "buffers" : [
        {
            "byteLength" : 6995872,
            "uri" : "birch_tree.bin"
        }
    ]
}
