{
    "asset" : {
        "generator" : "Khronos glTF Blender I/O v3.3.32",
        "version" : "2.0"
    },
    "scene" : 0,
    "scenes" : [
        {
            "name" : "Scene",
            "nodes" : [
                0,
                1
            ]
        }
    ],
    "nodes" : [
        {
            "mesh" : 0,
            "name" : "Cylinder",
            "scale" : [
                1.4878448247909546,
                0.7678448557853699,
                1.4878448247909546
            ]
        },
        {
            "mesh" : 1,
            "name" : "Cube",
            "scale" : [
                3.4800000190734863,
                1,
                4.359999656677246
            ],
            "translation" : [
                3.5661134719848633,
                -1.014599084854126,
                4.301739692687988
            ]
        }
    ],
    "meshes" : [
        {
            "name" : "Cylinder",
            "primitives" : [
                {
                    "attributes" : {
                        "POSITION" : 0,
                        "NORMAL" : 1,
                        "TEXCOORD_0" : 2
                    },
                    "indices" : 3
                }
            ]
        },
        {
            "name" : "Cube.001",
            "primitives" : [
                {
                    "attributes" : {
                        "POSITION" : 4,
                        "NORMAL" : 5,
                        "TEXCOORD_0" : 6
                    },
                    "indices" : 7
                }
            ]
        }
    ],
    "accessors" : [
        {
            "bufferView" : 0,
            "componentType" : 5126,
            "count" : 1852,
            "max" : [
                2.677039384841919,
                5.255620956420898,
                2.677039384841919
            ],
            "min" : [
                -2.677039384841919,
                -2.622814416885376,
                -2.677039384841919
            ],
            "type" : "VEC3"
        },
        {
            "bufferView" : 1,
            "componentType" : 5126,
            "count" : 1852,
            "type" : "VEC3"
        },
        {
            "bufferView" : 2,
            "componentType" : 5126,
            "count" : 1852,
            "type" : "VEC2"
        },
        {
            "bufferView" : 3,
            "componentType" : 5123,
            "count" : 3324,
            "type" : "SCALAR"
        },
        {
            "bufferView" : 4,
            "componentType" : 5126,
            "count" : 730,
            "max" : [
                1,
                2.582826614379883,
                1
            ],
            "min" : [
                -1,
                -1,
                -1
            ],
            "type" : "VEC3"
        },
        {
            "bufferView" : 5,
            "componentType" : 5126,
            "count" : 730,
            "type" : "VEC3"
        },
        {
            "bufferView" : 6,
            "componentType" : 5126,
            "count" : 730,
            "type" : "VEC2"
        },
        {
            "bufferView" : 7,
            "componentType" : 5123,
            "count" : 2028,
            "type" : "SCALAR"
        }
    ],
    "bufferViews" : [
        {
            "buffer" : 0,
            "byteLength" : 22224,
            "byteOffset" : 0,
            "target" : 34962
        },
        {
            "buffer" : 0,
            "byteLength" : 22224,
            "byteOffset" : 22224,
            "target" : 34962
        },
        {
            "buffer" : 0,
            "byteLength" : 14816,
            "byteOffset" : 44448,
            "target" : 34962
        },
        {
            "buffer" : 0,
            "byteLength" : 6648,
            "byteOffset" : 59264,
            "target" : 34963
        },
        {
            "buffer" : 0,
            "byteLength" : 8760,
            "byteOffset" : 65912,
            "target" : 34962
        },
        {
            "buffer" : 0,
            "byteLength" : 8760,
            "byteOffset" : 74672,
            "target" : 34962
        },
        {
            "buffer" : 0,
            "byteLength" : 5840,
            "byteOffset" : 83432,
            "target" : 34962
        },
        {
            "buffer" : 0,
            "byteLength" : 4056,
            "byteOffset" : 89272,
            "target" : 34963
        }
    ],
    "buffers" : [
        {
            "byteLength" : 93328,
            "uri" : "fortress.bin"
        }
    ]
}
