{
    "asset" : {
        "generator" : "Khronos glTF Blender I/O v3.4.50",
        "version" : "2.0"
    },
    "scene" : 0,
    "scenes" : [
        {
            "name" : "Scene",
            "nodes" : [
                0,
                1,
                2
            ]
        }
    ],
    "nodes" : [
        {
            "mesh" : 0,
            "name" : "Cylinder",
            "scale" : [
                1.4878448247909546,
                0.7678448557853699,
                1.4878448247909546
            ]
        },
        {
            "mesh" : 1,
            "name" : "Cube",
            "scale" : [
                3.4800000190734863,
                1,
                4.359999656677246
            ],
            "translation" : [
                3.5661134719848633,
                -1.014599084854126,
                4.301739692687988
            ]
        },
        {
            "name" : "Cube.001",
            "scale" : [
                1,
                1,
                2
            ],
            "translation" : [
                16.552597045898438,
                0,
                -2.5338664054870605
            ]
        }
    ],
    "materials" : [
        {
            "doubleSided" : true,
            "name" : "Material.002",
            "pbrMetallicRoughness" : {
                "baseColorFactor" : [
                    0.4507852792739868,
                    0.4677833616733551,
                    0.5840784907341003,
                    1
                ],
                "metallicFactor" : 0,
                "roughnessFactor" : 0.4000000059604645
            }
        },
        {
            "doubleSided" : true,
            "name" : "Material.003",
            "pbrMetallicRoughness" : {
                "baseColorFactor" : [
                    0.7232880592346191,
                    0.7509498596191406,
                    0.9403992295265198,
                    1
                ],
                "metallicFactor" : 0,
                "roughnessFactor" : 0.4000000059604645
            }
        },
        {
            "doubleSided" : true,
            "name" : "Material.004",
            "pbrMetallicRoughness" : {
                "baseColorFactor" : [
                    0.27889376878738403,
                    0.3419140577316284,
                    0.5332764387130737,
                    1
                ],
                "metallicFactor" : 0,
                "roughnessFactor" : 0.4000000059604645
            }
        },
        {
            "doubleSided" : true,
            "name" : "Material.005",
            "pbrMetallicRoughness" : {
                "baseColorFactor" : [
                    0.012286419048905373,
                    0.012286442331969738,
                    0.09989871829748154,
                    1
                ],
                "metallicFactor" : 0,
                "roughnessFactor" : 0.4000000059604645
            }
        },
        {
            "doubleSided" : true,
            "name" : "Material.001",
            "pbrMetallicRoughness" : {
                "baseColorFactor" : [
                    0.27889376878738403,
                    0.3419140577316284,
                    0.5332764387130737,
                    1
                ],
                "metallicFactor" : 0,
                "roughnessFactor" : 0.4000000059604645
            }
        }
    ],
    "meshes" : [
        {
            "name" : "Cylinder",
            "primitives" : [
                {
                    "attributes" : {
                        "POSITION" : 0,
                        "TEXCOORD_0" : 1,
                        "NORMAL" : 2
                    },
                    "indices" : 3,
                    "material" : 0
                },
                {
                    "attributes" : {
                        "POSITION" : 4,
                        "TEXCOORD_0" : 5,
                        "NORMAL" : 6
                    },
                    "indices" : 7,
                    "material" : 1
                },
                {
                    "attributes" : {
                        "POSITION" : 8,
                        "TEXCOORD_0" : 9,
                        "NORMAL" : 10
                    },
                    "indices" : 11,
                    "material" : 2
                },
                {
                    "attributes" : {
                        "POSITION" : 12,
                        "TEXCOORD_0" : 13,
                        "NORMAL" : 14
                    },
                    "indices" : 15,
                    "material" : 3
                }
            ]
        },
        {
            "name" : "Cube.001",
            "primitives" : [
                {
                    "attributes" : {
                        "POSITION" : 16,
                        "TEXCOORD_0" : 17,
                        "NORMAL" : 18
                    },
                    "indices" : 19,
                    "material" : 4
                }
            ]
        }
    ],
    "accessors" : [
        {
            "bufferView" : 0,
            "componentType" : 5126,
            "count" : 978,
            "max" : [
                2.677039384841919,
                5.255620956420898,
                2.677039384841919
            ],
            "min" : [
                -2.677039384841919,
                -2.622814416885376,
                -2.677039384841919
            ],
            "type" : "VEC3"
        },
        {
            "bufferView" : 1,
            "componentType" : 5126,
            "count" : 978,
            "type" : "VEC2"
        },
        {
            "bufferView" : 2,
            "componentType" : 5126,
            "count" : 978,
            "type" : "VEC3"
        },
        {
            "bufferView" : 3,
            "componentType" : 5123,
            "count" : 1908,
            "type" : "SCALAR"
        },
        {
            "bufferView" : 4,
            "componentType" : 5126,
            "count" : 64,
            "max" : [
                2.677039384841919,
                5.255620956420898,
                2.677039384841919
            ],
            "min" : [
                -2.677039384841919,
                5.255620956420898,
                -2.677039384841919
            ],
            "type" : "VEC3"
        },
        {
            "bufferView" : 5,
            "componentType" : 5126,
            "count" : 64,
            "type" : "VEC2"
        },
        {
            "bufferView" : 6,
            "componentType" : 5126,
            "count" : 64,
            "type" : "VEC3"
        },
        {
            "bufferView" : 7,
            "componentType" : 5123,
            "count" : 96,
            "type" : "SCALAR"
        },
        {
            "bufferView" : 8,
            "componentType" : 5126,
            "count" : 416,
            "max" : [
                2.4570939540863037,
                5.255620956420898,
                2.473262071609497
            ],
            "min" : [
                -2.677039384841919,
                -2.622814416885376,
                -2.677039384841919
            ],
            "type" : "VEC3"
        },
        {
            "bufferView" : 9,
            "componentType" : 5126,
            "count" : 416,
            "type" : "VEC2"
        },
        {
            "bufferView" : 10,
            "componentType" : 5126,
            "count" : 416,
            "type" : "VEC3"
        },
        {
            "bufferView" : 11,
            "componentType" : 5123,
            "count" : 636,
            "type" : "SCALAR"
        },
        {
            "bufferView" : 12,
            "componentType" : 5126,
            "count" : 420,
            "max" : [
                2.4570939540863037,
                5.255620956420898,
                2.677039384841919
            ],
            "min" : [
                -2.677039384841919,
                -2.622814416885376,
                -2.4570939540863037
            ],
            "type" : "VEC3"
        },
        {
            "bufferView" : 13,
            "componentType" : 5126,
            "count" : 420,
            "type" : "VEC2"
        },
        {
            "bufferView" : 14,
            "componentType" : 5126,
            "count" : 420,
            "type" : "VEC3"
        },
        {
            "bufferView" : 15,
            "componentType" : 5123,
            "count" : 684,
            "type" : "SCALAR"
        },
        {
            "bufferView" : 16,
            "componentType" : 5126,
            "count" : 730,
            "max" : [
                1,
                2.582826614379883,
                1
            ],
            "min" : [
                -1,
                -1,
                -1
            ],
            "type" : "VEC3"
        },
        {
            "bufferView" : 17,
            "componentType" : 5126,
            "count" : 730,
            "type" : "VEC2"
        },
        {
            "bufferView" : 18,
            "componentType" : 5126,
            "count" : 730,
            "type" : "VEC3"
        },
        {
            "bufferView" : 19,
            "componentType" : 5123,
            "count" : 2028,
            "type" : "SCALAR"
        }
    ],
    "bufferViews" : [
        {
            "buffer" : 0,
            "byteLength" : 11736,
            "byteOffset" : 0,
            "target" : 34962
        },
        {
            "buffer" : 0,
            "byteLength" : 7824,
            "byteOffset" : 11736,
            "target" : 34962
        },
        {
            "buffer" : 0,
            "byteLength" : 11736,
            "byteOffset" : 19560,
            "target" : 34962
        },
        {
            "buffer" : 0,
            "byteLength" : 3816,
            "byteOffset" : 31296,
            "target" : 34963
        },
        {
            "buffer" : 0,
            "byteLength" : 768,
            "byteOffset" : 35112,
            "target" : 34962
        },
        {
            "buffer" : 0,
            "byteLength" : 512,
            "byteOffset" : 35880,
            "target" : 34962
        },
        {
            "buffer" : 0,
            "byteLength" : 768,
            "byteOffset" : 36392,
            "target" : 34962
        },
        {
            "buffer" : 0,
            "byteLength" : 192,
            "byteOffset" : 37160,
            "target" : 34963
        },
        {
            "buffer" : 0,
            "byteLength" : 4992,
            "byteOffset" : 37352,
            "target" : 34962
        },
        {
            "buffer" : 0,
            "byteLength" : 3328,
            "byteOffset" : 42344,
            "target" : 34962
        },
        {
            "buffer" : 0,
            "byteLength" : 4992,
            "byteOffset" : 45672,
            "target" : 34962
        },
        {
            "buffer" : 0,
            "byteLength" : 1272,
            "byteOffset" : 50664,
            "target" : 34963
        },
        {
            "buffer" : 0,
            "byteLength" : 5040,
            "byteOffset" : 51936,
            "target" : 34962
        },
        {
            "buffer" : 0,
            "byteLength" : 3360,
            "byteOffset" : 56976,
            "target" : 34962
        },
        {
            "buffer" : 0,
            "byteLength" : 5040,
            "byteOffset" : 60336,
            "target" : 34962
        },
        {
            "buffer" : 0,
            "byteLength" : 1368,
            "byteOffset" : 65376,
            "target" : 34963
        },
        {
            "buffer" : 0,
            "byteLength" : 8760,
            "byteOffset" : 66744,
            "target" : 34962
        },
        {
            "buffer" : 0,
            "byteLength" : 5840,
            "byteOffset" : 75504,
            "target" : 34962
        },
        {
            "buffer" : 0,
            "byteLength" : 8760,
            "byteOffset" : 81344,
            "target" : 34962
        },
        {
            "buffer" : 0,
            "byteLength" : 4056,
            "byteOffset" : 90104,
            "target" : 34963
        }
    ],
    "buffers" : [
        {
            "byteLength" : 94160,
            "uri" : "fortress.bin"
        }
    ]
}
