{
    "asset" : {
        "generator" : "Khronos glTF Blender I/O v3.4.50",
        "version" : "2.0"
    },
    "scene" : 0,
    "scenes" : [
        {
            "name" : "Scene",
            "nodes" : [
                0
            ]
        }
    ],
    "nodes" : [
        {
            "mesh" : 0,
            "name" : "Cube.001",
            "translation" : [
                2.2721595764160156,
                0.7716398239135742,
                -14.40904426574707
            ]
        }
    ],
    "materials" : [
        {
            "doubleSided" : true,
            "name" : "Material.001",
            "pbrMetallicRoughness" : {
                "baseColorFactor" : [
                    0.012286419048905373,
                    0.012286442331969738,
                    0.09989871829748154,
                    1
                ],
                "metallicFactor" : 0,
                "roughnessFactor" : 0.4000000059604645
            }
        },
        {
            "doubleSided" : true,
            "name" : "Material.002",
            "pbrMetallicRoughness" : {
                "baseColorFactor" : [
                    0.27889376878738403,
                    0.3419140577316284,
                    0.5332764387130737,
                    1
                ],
                "metallicFactor" : 0,
                "roughnessFactor" : 0.4000000059604645
            }
        },
        {
            "doubleSided" : true,
            "name" : "Material.003",
            "pbrMetallicRoughness" : {
                "baseColorFactor" : [
                    0.4507852792739868,
                    0.4677833616733551,
                    0.5840784907341003,
                    1
                ],
                "metallicFactor" : 0,
                "roughnessFactor" : 0.4000000059604645
            }
        }
    ],
    "meshes" : [
        {
            "name" : "Cube.001",
            "primitives" : [
                {
                    "attributes" : {
                        "POSITION" : 0,
                        "TEXCOORD_0" : 1,
                        "NORMAL" : 2
                    },
                    "indices" : 3,
                    "material" : 0
                },
                {
                    "attributes" : {
                        "POSITION" : 4,
                        "TEXCOORD_0" : 5,
                        "NORMAL" : 6
                    },
                    "indices" : 7,
                    "material" : 1
                },
                {
                    "attributes" : {
                        "POSITION" : 8,
                        "TEXCOORD_0" : 9,
                        "NORMAL" : 10
                    },
                    "indices" : 11,
                    "material" : 2
                }
            ]
        }
    ],
    "accessors" : [
        {
            "bufferView" : 0,
            "componentType" : 5126,
            "count" : 660,
            "max" : [
                1.8715589046478271,
                7.100767135620117,
                4.615690231323242
            ],
            "min" : [
                -1.864173173904419,
                -1.2316839694976807,
                -4.615690231323242
            ],
            "type" : "VEC3"
        },
        {
            "bufferView" : 1,
            "componentType" : 5126,
            "count" : 660,
            "type" : "VEC2"
        },
        {
            "bufferView" : 2,
            "componentType" : 5126,
            "count" : 660,
            "type" : "VEC3"
        },
        {
            "bufferView" : 3,
            "componentType" : 5123,
            "count" : 1044,
            "type" : "SCALAR"
        },
        {
            "bufferView" : 4,
            "componentType" : 5126,
            "count" : 132,
            "max" : [
                1.7830619812011719,
                6.7035932540893555,
                2.307845115661621
            ],
            "min" : [
                -1.7830619812011719,
                -0.4800831079483032,
                -4.615690231323242
            ],
            "type" : "VEC3"
        },
        {
            "bufferView" : 5,
            "componentType" : 5126,
            "count" : 132,
            "type" : "VEC2"
        },
        {
            "bufferView" : 6,
            "componentType" : 5126,
            "count" : 132,
            "type" : "VEC3"
        },
        {
            "bufferView" : 7,
            "componentType" : 5123,
            "count" : 204,
            "type" : "SCALAR"
        },
        {
            "bufferView" : 8,
            "componentType" : 5126,
            "count" : 104,
            "max" : [
                1.7830619812011719,
                6.879878044128418,
                4.615690231323242
            ],
            "min" : [
                -1.7830619812011719,
                -0.36996322870254517,
                -1.7433313131332397
            ],
            "type" : "VEC3"
        },
        {
            "bufferView" : 9,
            "componentType" : 5126,
            "count" : 104,
            "type" : "VEC2"
        },
        {
            "bufferView" : 10,
            "componentType" : 5126,
            "count" : 104,
            "type" : "VEC3"
        },
        {
            "bufferView" : 11,
            "componentType" : 5123,
            "count" : 156,
            "type" : "SCALAR"
        }
    ],
    "bufferViews" : [
        {
            "buffer" : 0,
            "byteLength" : 7920,
            "byteOffset" : 0,
            "target" : 34962
        },
        {
            "buffer" : 0,
            "byteLength" : 5280,
            "byteOffset" : 7920,
            "target" : 34962
        },
        {
            "buffer" : 0,
            "byteLength" : 7920,
            "byteOffset" : 13200,
            "target" : 34962
        },
        {
            "buffer" : 0,
            "byteLength" : 2088,
            "byteOffset" : 21120,
            "target" : 34963
        },
        {
            "buffer" : 0,
            "byteLength" : 1584,
            "byteOffset" : 23208,
            "target" : 34962
        },
        {
            "buffer" : 0,
            "byteLength" : 1056,
            "byteOffset" : 24792,
            "target" : 34962
        },
        {
            "buffer" : 0,
            "byteLength" : 1584,
            "byteOffset" : 25848,
            "target" : 34962
        },
        {
            "buffer" : 0,
            "byteLength" : 408,
            "byteOffset" : 27432,
            "target" : 34963
        },
        {
            "buffer" : 0,
            "byteLength" : 1248,
            "byteOffset" : 27840,
            "target" : 34962
        },
        {
            "buffer" : 0,
            "byteLength" : 832,
            "byteOffset" : 29088,
            "target" : 34962
        },
        {
            "buffer" : 0,
            "byteLength" : 1248,
            "byteOffset" : 29920,
            "target" : 34962
        },
        {
            "buffer" : 0,
            "byteLength" : 312,
            "byteOffset" : 31168,
            "target" : 34963
        }
    ],
    "buffers" : [
        {
            "byteLength" : 31480,
            "uri" : "high_boat.bin"
        }
    ]
}
