{
    "asset" : {
        "generator" : "Khronos glTF Blender I/O v3.3.32",
        "version" : "2.0"
    },
    "scene" : 0,
    "scenes" : [
        {
            "name" : "Scene",
            "nodes" : [
                0
            ]
        }
    ],
    "nodes" : [
        {
            "mesh" : 0,
            "name" : "Circle"
        }
    ],
    "meshes" : [
        {
            "name" : "Circle",
            "primitives" : [
                {
                    "attributes" : {
                        "POSITION" : 0,
                        "NORMAL" : 1,
                        "TEXCOORD_0" : 2
                    },
                    "indices" : 3
                }
            ]
        }
    ],
    "accessors" : [
        {
            "bufferView" : 0,
            "componentType" : 5126,
            "count" : 4665,
            "max" : [
                1.3710358142852783,
                1.1435012817382812,
                4.707650184631348
            ],
            "min" : [
                -7.553439140319824,
                -0.012504888698458672,
                -4.684537887573242
            ],
            "type" : "VEC3"
        },
        {
            "bufferView" : 1,
            "componentType" : 5126,
            "count" : 4665,
            "type" : "VEC3"
        },
        {
            "bufferView" : 2,
            "componentType" : 5126,
            "count" : 4665,
            "type" : "VEC2"
        },
        {
            "bufferView" : 3,
            "componentType" : 5123,
            "count" : 8046,
            "type" : "SCALAR"
        }
    ],
    "bufferViews" : [
        {
            "buffer" : 0,
            "byteLength" : 55980,
            "byteOffset" : 0,
            "target" : 34962
        },
        {
            "buffer" : 0,
            "byteLength" : 55980,
            "byteOffset" : 55980,
            "target" : 34962
        },
        {
            "buffer" : 0,
            "byteLength" : 37320,
            "byteOffset" : 111960,
            "target" : 34962
        },
        {
            "buffer" : 0,
            "byteLength" : 16092,
            "byteOffset" : 149280,
            "target" : 34963
        }
    ],
    "buffers" : [
        {
            "byteLength" : 165372,
            "uri" : "mountain.bin"
        }
    ]
}
