{
    "asset" : {
        "generator" : "Khronos glTF Blender I/O v3.3.32",
        "version" : "2.0"
    },
    "scene" : 0,
    "scenes" : [
        {
            "name" : "Scene",
            "nodes" : [
                0
            ]
        }
    ],
    "nodes" : [
        {
            "mesh" : 0,
            "name" : "Tree.Birch"
        }
    ],
    "materials" : [
        {
            "doubleSided" : true,
            "name" : "Tree.Birch.Leaf.Summer.Mat",
            "pbrMetallicRoughness" : {
                "baseColorFactor" : [
                    0.2620517909526825,
                    0.5118915438652039,
                    1,
                    1
                ],
                "metallicFactor" : 0,
                "roughnessFactor" : 0.5
            }
        },
        {
            "doubleSided" : true,
            "name" : "Tree.Birch.Bark.Mat",
            "pbrMetallicRoughness" : {
                "baseColorFactor" : [
                    0.021124927327036858,
                    0.06346938014030457,
                    0.15485873818397522,
                    1
                ],
                "metallicFactor" : 0,
                "roughnessFactor" : 0.4780219793319702
            }
        },
        {
            "doubleSided" : true,
            "name" : "Material",
            "pbrMetallicRoughness" : {
                "baseColorFactor" : [
                    0.8713660836219788,
                    0.9559725522994995,
                    1,
                    1
                ],
                "metallicFactor" : 0,
                "roughnessFactor" : 0.5
            }
        },
        {
            "doubleSided" : true,
            "name" : "Material.001",
            "pbrMetallicRoughness" : {
                "baseColorFactor" : [
                    0.008641100488603115,
                    0.11649870127439499,
                    0.3757404386997223,
                    1
                ],
                "metallicFactor" : 0,
                "roughnessFactor" : 0.4000000059604645
            }
        }
    ],
    "meshes" : [
        {
            "name" : "sub02",
            "primitives" : [
                {
                    "attributes" : {
                        "POSITION" : 0,
                        "NORMAL" : 1,
                        "TEXCOORD_0" : 2
                    },
                    "indices" : 3,
                    "material" : 0
                },
                {
                    "attributes" : {
                        "POSITION" : 4,
                        "NORMAL" : 5,
                        "TEXCOORD_0" : 6
                    },
                    "indices" : 7,
                    "material" : 1
                },
                {
                    "attributes" : {
                        "POSITION" : 8,
                        "NORMAL" : 9,
                        "TEXCOORD_0" : 10
                    },
                    "indices" : 11,
                    "material" : 2
                },
                {
                    "attributes" : {
                        "POSITION" : 12,
                        "NORMAL" : 13,
                        "TEXCOORD_0" : 14
                    },
                    "indices" : 15,
                    "material" : 3
                }
            ]
        }
    ],
    "accessors" : [
        {
            "bufferView" : 0,
            "componentType" : 5126,
            "count" : 140100,
            "max" : [
                1.057166576385498,
                3.898221015930176,
                1.174425482749939
            ],
            "min" : [
                -1.2520685195922852,
                0.8800487518310547,
                -1.12883722782135
            ],
            "type" : "VEC3"
        },
        {
            "bufferView" : 1,
            "componentType" : 5126,
            "count" : 140100,
            "type" : "VEC3"
        },
        {
            "bufferView" : 2,
            "componentType" : 5126,
            "count" : 140100,
            "type" : "VEC2"
        },
        {
            "bufferView" : 3,
            "componentType" : 5125,
            "count" : 140100,
            "type" : "SCALAR"
        },
        {
            "bufferView" : 4,
            "componentType" : 5126,
            "count" : 2013,
            "max" : [
                0.8214147090911865,
                3.387470245361328,
                1.0261348485946655
            ],
            "min" : [
                -0.9788229465484619,
                -0.020649908110499382,
                -0.8908761739730835
            ],
            "type" : "VEC3"
        },
        {
            "bufferView" : 5,
            "componentType" : 5126,
            "count" : 2013,
            "type" : "VEC3"
        },
        {
            "bufferView" : 6,
            "componentType" : 5126,
            "count" : 2013,
            "type" : "VEC2"
        },
        {
            "bufferView" : 7,
            "componentType" : 5123,
            "count" : 2013,
            "type" : "SCALAR"
        },
        {
            "bufferView" : 8,
            "componentType" : 5126,
            "count" : 47859,
            "max" : [
                1.140638828277588,
                3.898221015930176,
                1.1430901288986206
            ],
            "min" : [
                -1.1583032608032227,
                1.1505708694458008,
                -1.1140729188919067
            ],
            "type" : "VEC3"
        },
        {
            "bufferView" : 9,
            "componentType" : 5126,
            "count" : 47859,
            "type" : "VEC3"
        },
        {
            "bufferView" : 10,
            "componentType" : 5126,
            "count" : 47859,
            "type" : "VEC2"
        },
        {
            "bufferView" : 11,
            "componentType" : 5123,
            "count" : 47859,
            "type" : "SCALAR"
        },
        {
            "bufferView" : 12,
            "componentType" : 5126,
            "count" : 6396,
            "max" : [
                0.9616661071777344,
                2.7361068725585938,
                1.2016571760177612
            ],
            "min" : [
                -1.2306303977966309,
                0.8375825881958008,
                -1.1670628786087036
            ],
            "type" : "VEC3"
        },
        {
            "bufferView" : 13,
            "componentType" : 5126,
            "count" : 6396,
            "type" : "VEC3"
        },
        {
            "bufferView" : 14,
            "componentType" : 5126,
            "count" : 6396,
            "type" : "VEC2"
        },
        {
            "bufferView" : 15,
            "componentType" : 5123,
            "count" : 6396,
            "type" : "SCALAR"
        }
    ],
    "bufferViews" : [
        {
            "buffer" : 0,
            "byteLength" : 1681200,
            "byteOffset" : 0,
            "target" : 34962
        },
        {
            "buffer" : 0,
            "byteLength" : 1681200,
            "byteOffset" : 1681200,
            "target" : 34962
        },
        {
            "buffer" : 0,
            "byteLength" : 1120800,
            "byteOffset" : 3362400,
            "target" : 34962
        },
        {
            "buffer" : 0,
            "byteLength" : 560400,
            "byteOffset" : 4483200,
            "target" : 34963
        },
        {
            "buffer" : 0,
            "byteLength" : 24156,
            "byteOffset" : 5043600,
            "target" : 34962
        },
        {
            "buffer" : 0,
            "byteLength" : 24156,
            "byteOffset" : 5067756,
            "target" : 34962
        },
        {
            "buffer" : 0,
            "byteLength" : 16104,
            "byteOffset" : 5091912,
            "target" : 34962
        },
        {
            "buffer" : 0,
            "byteLength" : 4026,
            "byteOffset" : 5108016,
            "target" : 34963
        },
        {
            "buffer" : 0,
            "byteLength" : 574308,
            "byteOffset" : 5112044,
            "target" : 34962
        },
        {
            "buffer" : 0,
            "byteLength" : 574308,
            "byteOffset" : 5686352,
            "target" : 34962
        },
        {
            "buffer" : 0,
            "byteLength" : 382872,
            "byteOffset" : 6260660,
            "target" : 34962
        },
        {
            "buffer" : 0,
            "byteLength" : 95718,
            "byteOffset" : 6643532,
            "target" : 34963
        },
        {
            "buffer" : 0,
            "byteLength" : 76752,
            "byteOffset" : 6739252,
            "target" : 34962
        },
        {
            "buffer" : 0,
            "byteLength" : 76752,
            "byteOffset" : 6816004,
            "target" : 34962
        },
        {
            "buffer" : 0,
            "byteLength" : 51168,
            "byteOffset" : 6892756,
            "target" : 34962
        },
        {
            "buffer" : 0,
            "byteLength" : 12792,
            "byteOffset" : 6943924,
            "target" : 34963
        }
    ],
    "buffers" : [
        {
            "byteLength" : 6956716,
            "uri" : "birch_treesss_brighter.bin"
        }
    ]
}
